<svg width="278" height="251" viewBox="0 0 278 251" fill="none" xmlns="http://www.w3.org/2000/svg">
<path d="M17.0579 88.3582C16.7849 88.3579 16.5143 88.3068 16.26 88.2075C15.8488 88.0495 15.4953 87.7702 15.2466 87.4065C14.9979 87.0429 14.8658 86.6122 14.8676 86.1717V63.3536C14.8668 62.5812 14.5596 61.8408 14.0134 61.2946C13.4673 60.7485 12.7268 60.4412 11.9545 60.4403H7.2818C5.35121 60.4382 3.50031 59.6703 2.13518 58.3052C0.770046 56.94 0.00216371 55.0892 0 53.1586V7.28173C0.00216499 5.35116 0.770046 3.50028 2.13518 2.13516C3.50031 0.770041 5.35121 0.00216369 7.2818 0H172.1C174.031 0.00216626 175.882 0.770041 177.247 2.13516C178.612 3.50028 179.38 5.35116 179.382 7.28173V53.1586C179.38 55.0892 178.612 56.94 177.247 58.3052C175.882 59.6703 174.031 60.4382 172.1 60.4403H44.8839C44.4801 60.4408 44.0807 60.525 43.7111 60.6876C43.3415 60.8502 43.0096 61.0877 42.7363 61.385L18.6622 87.6477C18.4589 87.8712 18.2112 88.0499 17.935 88.1722C17.6587 88.2945 17.36 88.3579 17.0579 88.3582ZM7.2818 0.970297C5.60846 0.972186 4.00421 1.63775 2.82099 2.82096C1.63776 4.00418 0.972195 5.60841 0.970305 7.28173V53.1586C0.972196 54.8319 1.63776 56.4361 2.82099 57.6194C4.00421 58.8026 5.60847 59.4681 7.2818 59.47H11.9545C12.9841 59.4712 13.9712 59.8807 14.6992 60.6088C15.4273 61.3368 15.8368 62.324 15.8379 63.3536V86.1717C15.8379 86.4163 15.9118 86.6552 16.05 86.8571C16.1881 87.059 16.3839 87.2144 16.6119 87.3031C16.8399 87.3918 17.0893 87.4095 17.3275 87.354C17.5658 87.2985 17.7817 87.1723 17.947 86.992L42.0211 60.7293C42.3853 60.3329 42.8278 60.0164 43.3205 59.7996C43.8132 59.5829 44.3456 59.4706 44.8839 59.47H172.1C173.774 59.4681 175.378 58.8026 176.561 57.6194C177.744 56.4361 178.41 54.8319 178.412 53.1586V7.28173C178.41 5.60841 177.744 4.00418 176.561 2.82096C175.378 1.63775 173.774 0.972187 172.1 0.970297H7.2818Z" fill="#CCCCCC"/>
<path d="M17.8611 20.6623C21.3802 20.6623 24.233 17.8095 24.233 14.2905C24.233 10.7715 21.3802 7.9187 17.8611 7.9187C14.342 7.9187 11.4893 10.7715 11.4893 14.2905C11.4893 17.8095 14.342 20.6623 17.8611 20.6623Z" fill="#CCCCCC"/>
<path d="M164.667 49.5481H14.7159C14.2692 49.5486 13.8269 49.4611 13.4141 49.2905C13.0014 49.12 12.6263 48.8698 12.3103 48.5542C11.9943 48.2385 11.7436 47.8637 11.5725 47.4512C11.4015 47.0386 11.3135 46.5964 11.3135 46.1498C11.3135 45.7032 11.4015 45.2609 11.5725 44.8484C11.7436 44.4358 11.9943 44.061 12.3103 43.7454C12.6263 43.4298 13.0014 43.1795 13.4141 43.009C13.8269 42.8384 14.2692 42.7509 14.7159 42.7515H164.667C165.113 42.7509 165.556 42.8384 165.968 43.009C166.381 43.1795 166.756 43.4298 167.072 43.7454C167.388 44.061 167.639 44.4358 167.81 44.8484C167.981 45.2609 168.069 45.7032 168.069 46.1498C168.069 46.5964 167.981 47.0386 167.81 47.4512C167.639 47.8637 167.388 48.2385 167.072 48.5542C166.756 48.8698 166.381 49.12 165.968 49.2905C165.556 49.4611 165.113 49.5486 164.667 49.5481Z" fill="#CCCCCC"/>
<path d="M115.816 35.1052H14.7159C14.2692 35.1057 13.8269 35.0182 13.4141 34.8477C13.0014 34.6771 12.6263 34.4269 12.3103 34.1113C11.9943 33.7957 11.7436 33.4209 11.5725 33.0083C11.4015 32.5957 11.3135 32.1535 11.3135 31.7069C11.3135 31.2603 11.4015 30.818 11.5725 30.4055C11.7436 29.9929 11.9943 29.6181 12.3103 29.3025C12.6263 28.9869 13.0014 28.7367 13.4141 28.5661C13.8269 28.3956 14.2692 28.3081 14.7159 28.3086H115.816C116.263 28.3081 116.705 28.3956 117.118 28.5661C117.53 28.7367 117.906 28.9869 118.222 29.3025C118.537 29.6181 118.788 29.9929 118.959 30.4055C119.13 30.818 119.218 31.2603 119.218 31.7069C119.218 32.1535 119.13 32.5957 118.959 33.0083C118.788 33.4209 118.537 33.7957 118.222 34.1113C117.906 34.4269 117.53 34.6771 117.118 34.8477C116.705 35.0182 116.263 35.1057 115.816 35.1052Z" fill="#CCCCCC"/>
<path d="M17.0579 250.202C16.7849 250.202 16.5143 250.151 16.26 250.051C15.8488 249.893 15.4954 249.614 15.2467 249.25C14.998 248.887 14.8658 248.456 14.8676 248.015V225.197C14.8668 224.425 14.5596 223.684 14.0134 223.138C13.4673 222.592 12.7268 222.285 11.9545 222.284H7.2818C5.35121 222.282 3.50032 221.514 2.13519 220.149C0.770054 218.784 0.00216885 216.933 0 215.002V169.125C0.00216499 167.195 0.770047 165.344 2.13518 163.979C3.50031 162.614 5.35121 161.846 7.2818 161.844H172.1C174.031 161.846 175.882 162.614 177.247 163.979C178.612 165.344 179.38 167.195 179.382 169.125V215.002C179.38 216.933 178.612 218.784 177.247 220.149C175.882 221.514 174.031 222.282 172.1 222.284H44.8839C44.4801 222.285 44.0807 222.369 43.7111 222.531C43.3415 222.694 43.0096 222.931 42.7363 223.229L18.6622 249.491C18.4589 249.715 18.2112 249.894 17.935 250.016C17.6587 250.138 17.36 250.202 17.0579 250.202ZM7.2818 162.814C5.60846 162.816 4.00421 163.481 2.82099 164.665C1.63776 165.848 0.972193 167.452 0.970305 169.125V215.002C0.972195 216.676 1.63776 218.28 2.82099 219.463C4.00421 220.646 5.60847 221.312 7.2818 221.314H11.9545C12.9841 221.315 13.9712 221.724 14.6992 222.453C15.4273 223.181 15.8368 224.168 15.8379 225.197V248.015C15.8379 248.26 15.9118 248.499 16.05 248.701C16.1881 248.903 16.3839 249.058 16.6119 249.147C16.8399 249.236 17.0893 249.253 17.3275 249.198C17.5658 249.142 17.7817 249.016 17.947 248.836L42.0211 222.573C42.3853 222.177 42.8278 221.86 43.3205 221.643C43.8132 221.427 44.3456 221.314 44.8839 221.314H172.1C173.774 221.312 175.378 220.646 176.561 219.463C177.744 218.28 178.41 216.676 178.412 215.002V169.125C178.41 167.452 177.744 165.848 176.561 164.665C175.378 163.481 173.774 162.816 172.1 162.814L7.2818 162.814Z" fill="#CCCCCC"/>
<path d="M260.451 166.094C260.149 166.094 259.85 166.031 259.574 165.908C259.297 165.786 259.05 165.607 258.846 165.384L234.772 139.121C234.499 138.824 234.167 138.586 233.797 138.424C233.428 138.261 233.029 138.177 232.625 138.176H105.408C103.478 138.174 101.627 137.406 100.262 136.041C98.8965 134.676 98.1286 132.825 98.1265 130.895V85.0178C98.1286 83.0872 98.8965 81.2364 100.262 79.8713C101.627 78.5061 103.478 77.7383 105.408 77.7361H270.227C272.157 77.7382 274.008 78.5061 275.373 79.8712C276.739 81.2364 277.506 83.0872 277.509 85.0178V130.895C277.506 132.825 276.739 134.676 275.373 136.041C274.008 137.406 272.157 138.174 270.227 138.176H265.554C264.782 138.177 264.041 138.485 263.495 139.031C262.949 139.577 262.642 140.317 262.641 141.09V163.908C262.643 164.348 262.511 164.779 262.262 165.143C262.013 165.506 261.66 165.785 261.248 165.943C260.994 166.043 260.724 166.094 260.451 166.094ZM105.408 78.7064C103.735 78.7083 102.131 79.3738 100.947 80.557C99.7642 81.7402 99.0986 83.3445 99.0968 85.0178V130.895C99.0986 132.568 99.7642 134.172 100.947 135.355C102.131 136.539 103.735 137.204 105.408 137.206H232.625C233.163 137.207 233.695 137.319 234.188 137.536C234.681 137.752 235.123 138.069 235.487 138.465L259.562 164.728C259.727 164.908 259.943 165.035 260.181 165.09C260.419 165.146 260.669 165.128 260.897 165.039C261.125 164.95 261.32 164.795 261.459 164.593C261.597 164.391 261.671 164.152 261.671 163.908V141.09C261.672 140.06 262.081 139.073 262.809 138.345C263.537 137.617 264.524 137.207 265.554 137.206H270.227C271.9 137.204 273.504 136.539 274.688 135.355C275.871 134.172 276.536 132.568 276.538 130.895V85.0178C276.536 83.3445 275.871 81.7403 274.688 80.557C273.504 79.3738 271.9 78.7083 270.227 78.7064L105.408 78.7064Z" fill="#91D7FF"/>
<path d="M17.8611 182.506C21.3802 182.506 24.233 179.653 24.233 176.134C24.233 172.615 21.3802 169.762 17.8611 169.762C14.342 169.762 11.4893 172.615 11.4893 176.134C11.4893 179.653 14.342 182.506 17.8611 182.506Z" fill="#CCCCCC"/>
<path d="M164.667 211.392H14.7159C14.2692 211.392 13.8269 211.305 13.4141 211.134C13.0014 210.964 12.6263 210.714 12.3103 210.398C11.9943 210.082 11.7436 209.707 11.5725 209.295C11.4015 208.882 11.3135 208.44 11.3135 207.994C11.3135 207.547 11.4015 207.105 11.5725 206.692C11.7436 206.28 11.9943 205.905 12.3103 205.589C12.6263 205.274 13.0014 205.023 13.4141 204.853C13.8269 204.682 14.2692 204.595 14.7159 204.595H164.667C165.568 204.595 166.432 204.953 167.07 205.591C167.707 206.228 168.065 207.092 168.065 207.994C168.065 208.895 167.707 209.759 167.07 210.396C166.432 211.034 165.568 211.392 164.667 211.392Z" fill="#CCCCCC"/>
<path d="M115.816 196.949H14.7159C14.2692 196.949 13.8269 196.862 13.4141 196.691C13.0014 196.521 12.6263 196.271 12.3103 195.955C11.9943 195.639 11.7436 195.265 11.5725 194.852C11.4015 194.439 11.3135 193.997 11.3135 193.551C11.3135 193.104 11.4015 192.662 11.5725 192.249C11.7436 191.837 11.9943 191.462 12.3103 191.146C12.6263 190.831 13.0014 190.58 13.4141 190.41C13.8269 190.239 14.2692 190.152 14.7159 190.152H115.816C116.263 190.152 116.705 190.239 117.118 190.41C117.53 190.58 117.906 190.831 118.222 191.146C118.537 191.462 118.788 191.837 118.959 192.249C119.13 192.662 119.218 193.104 119.218 193.551C119.218 193.997 119.13 194.439 118.959 194.852C118.788 195.265 118.537 195.639 118.222 195.955C117.906 196.271 117.53 196.521 117.118 196.691C116.705 196.862 116.263 196.949 115.816 196.949Z" fill="#CCCCCC"/>
<path d="M115.988 97.9736C119.507 97.9736 122.36 95.1208 122.36 91.6018C122.36 88.0827 119.507 85.23 115.988 85.23C112.469 85.23 109.616 88.0827 109.616 91.6018C109.616 95.1208 112.469 97.9736 115.988 97.9736Z" fill="#91D7FF"/>
<path d="M262.793 126.859H112.842C111.941 126.859 111.076 126.501 110.439 125.864C109.802 125.227 109.444 124.362 109.444 123.461C109.444 122.56 109.802 121.695 110.439 121.058C111.076 120.421 111.941 120.063 112.842 120.063H262.793C263.694 120.063 264.559 120.421 265.196 121.058C265.833 121.695 266.191 122.56 266.191 123.461C266.191 124.362 265.833 125.227 265.196 125.864C264.559 126.501 263.694 126.859 262.793 126.859Z" fill="#00A0FD"/>
<path d="M213.942 112.416H112.842C112.396 112.417 111.953 112.329 111.541 112.159C111.128 111.988 110.753 111.738 110.437 111.422C110.121 111.107 109.87 110.732 109.699 110.319C109.528 109.907 109.44 109.465 109.44 109.018C109.44 108.571 109.528 108.129 109.699 107.717C109.87 107.304 110.121 106.929 110.437 106.614C110.753 106.298 111.128 106.048 111.541 105.877C111.953 105.707 112.396 105.619 112.842 105.62H213.942C214.389 105.619 214.831 105.707 215.244 105.877C215.657 106.048 216.032 106.298 216.348 106.614C216.664 106.929 216.915 107.304 217.086 107.717C217.257 108.129 217.345 108.571 217.345 109.018C217.345 109.465 217.257 109.907 217.086 110.319C216.915 110.732 216.664 111.107 216.348 111.422C216.032 111.738 215.657 111.988 215.244 112.159C214.831 112.329 214.389 112.417 213.942 112.416Z" fill="#006AEA"/>
</svg>
