<svg width="114" height="114" viewBox="0 0 114 114" fill="none" xmlns="http://www.w3.org/2000/svg">
<g opacity="0.3">
<path d="M0 2.51316C0 1.12518 1.12518 0 2.51316 0H10.5829C11.9708 0 13.096 1.12518 13.096 2.51316V10.5829C13.096 11.9708 11.9708 13.096 10.5829 13.096H2.51316C1.12518 13.096 0 11.9708 0 10.5829V2.51316Z" fill="#00A0FD"/>
<path d="M25.1316 2.51316C25.1316 1.12518 26.2568 0 27.6448 0H35.7145C37.1025 0 38.2276 1.12518 38.2276 2.51316V10.5829C38.2276 11.9708 37.1025 13.096 35.7145 13.096H27.6448C26.2568 13.096 25.1316 11.9708 25.1316 10.5829V2.51316Z" fill="#00A0FD"/>
<path d="M50.2633 2.51316C50.2633 1.12518 51.3885 0 52.7764 0H60.8461C62.2341 0 63.3593 1.12518 63.3593 2.51316V10.5829C63.3593 11.9708 62.2341 13.096 60.8461 13.096H52.7764C51.3885 13.096 50.2633 11.9708 50.2633 10.5829V2.51316Z" fill="#00A0FD"/>
<path d="M75.3949 2.51316C75.3949 1.12518 76.5201 0 77.9081 0H85.9778C87.3657 0 88.4909 1.12518 88.4909 2.51316V10.5829C88.4909 11.9708 87.3657 13.096 85.9778 13.096H77.9081C76.5201 13.096 75.3949 11.9708 75.3949 10.5829V2.51316Z" fill="#00A0FD"/>
<path d="M100.527 2.51316C100.527 1.12518 101.652 0 103.04 0H111.109C112.497 0 113.623 1.12518 113.623 2.51316V10.5829C113.623 11.9708 112.497 13.096 111.109 13.096H103.04C101.652 13.096 100.527 11.9708 100.527 10.5829V2.51316Z" fill="#00A0FD"/>
<path d="M100.527 27.6448C100.527 26.2568 101.652 25.1316 103.04 25.1316H111.109C112.497 25.1316 113.623 26.2568 113.623 27.6448V35.7145C113.623 37.1025 112.497 38.2276 111.109 38.2276H103.04C101.652 38.2276 100.527 37.1025 100.527 35.7145V27.6448Z" fill="#00A0FD"/>
<path d="M75.3949 27.6448C75.3949 26.2568 76.5201 25.1316 77.9081 25.1316H85.9778C87.3657 25.1316 88.4909 26.2568 88.4909 27.6448V35.7145C88.4909 37.1025 87.3657 38.2276 85.9778 38.2276H77.9081C76.5201 38.2276 75.3949 37.1025 75.3949 35.7145V27.6448Z" fill="#00A0FD"/>
<path d="M50.2633 27.6448C50.2633 26.2568 51.3885 25.1316 52.7764 25.1316H60.8461C62.2341 25.1316 63.3593 26.2568 63.3593 27.6448V35.7145C63.3593 37.1025 62.2341 38.2276 60.8461 38.2276H52.7764C51.3885 38.2276 50.2633 37.1025 50.2633 35.7145V27.6448Z" fill="#00A0FD"/>
<path d="M25.1316 27.6448C25.1316 26.2568 26.2568 25.1316 27.6448 25.1316H35.7145C37.1025 25.1316 38.2276 26.2568 38.2276 27.6448V35.7145C38.2276 37.1025 37.1025 38.2276 35.7145 38.2276H27.6448C26.2568 38.2276 25.1316 37.1025 25.1316 35.7145V27.6448Z" fill="#00A0FD"/>
<path d="M0 27.6448C0 26.2568 1.12518 25.1316 2.51316 25.1316H10.5829C11.9708 25.1316 13.096 26.2568 13.096 27.6448V35.7145C13.096 37.1025 11.9708 38.2276 10.5829 38.2276H2.51316C1.12518 38.2276 0 37.1025 0 35.7145V27.6448Z" fill="#00A0FD"/>
<path d="M100.527 52.7764C100.527 51.3885 101.652 50.2633 103.04 50.2633H111.109C112.497 50.2633 113.623 51.3885 113.623 52.7764V60.8461C113.623 62.2341 112.497 63.3593 111.109 63.3593H103.04C101.652 63.3593 100.527 62.2341 100.527 60.8461V52.7764Z" fill="#00A0FD"/>
<path d="M75.3949 52.7764C75.3949 51.3885 76.5201 50.2633 77.9081 50.2633H85.9778C87.3657 50.2633 88.4909 51.3885 88.4909 52.7764V60.8461C88.4909 62.2341 87.3657 63.3593 85.9778 63.3593H77.9081C76.5201 63.3593 75.3949 62.2341 75.3949 60.8461V52.7764Z" fill="#00A0FD"/>
<path d="M50.2633 52.7764C50.2633 51.3885 51.3885 50.2633 52.7764 50.2633H60.8461C62.2341 50.2633 63.3593 51.3885 63.3593 52.7764V60.8461C63.3593 62.2341 62.2341 63.3593 60.8461 63.3593H52.7764C51.3885 63.3593 50.2633 62.2341 50.2633 60.8461V52.7764Z" fill="#00A0FD"/>
<path d="M25.1316 52.7764C25.1316 51.3885 26.2568 50.2633 27.6448 50.2633H35.7145C37.1025 50.2633 38.2276 51.3885 38.2276 52.7764V60.8461C38.2276 62.2341 37.1025 63.3593 35.7145 63.3593H27.6448C26.2568 63.3593 25.1316 62.2341 25.1316 60.8461V52.7764Z" fill="#00A0FD"/>
<path d="M0 52.7764C0 51.3885 1.12518 50.2633 2.51316 50.2633H10.5829C11.9708 50.2633 13.096 51.3885 13.096 52.7764V60.8461C13.096 62.2341 11.9708 63.3593 10.5829 63.3593H2.51316C1.12518 63.3593 0 62.2341 0 60.8461V52.7764Z" fill="#00A0FD"/>
<path d="M100.527 77.9081C100.527 76.5201 101.652 75.3949 103.04 75.3949H111.109C112.497 75.3949 113.623 76.5201 113.623 77.9081V85.9778C113.623 87.3657 112.497 88.4909 111.109 88.4909H103.04C101.652 88.4909 100.527 87.3657 100.527 85.9778V77.9081Z" fill="#00A0FD"/>
<path d="M75.3949 77.9081C75.3949 76.5201 76.5201 75.3949 77.9081 75.3949H85.9778C87.3657 75.3949 88.4909 76.5201 88.4909 77.9081V85.9778C88.4909 87.3657 87.3657 88.4909 85.9778 88.4909H77.9081C76.5201 88.4909 75.3949 87.3657 75.3949 85.9778V77.9081Z" fill="#00A0FD"/>
<path d="M50.2633 77.9081C50.2633 76.5201 51.3885 75.3949 52.7764 75.3949H60.8461C62.2341 75.3949 63.3593 76.5201 63.3593 77.9081V85.9778C63.3593 87.3657 62.2341 88.4909 60.8461 88.4909H52.7764C51.3885 88.4909 50.2633 87.3657 50.2633 85.9778V77.9081Z" fill="#00A0FD"/>
<path d="M25.1316 77.9081C25.1316 76.5201 26.2568 75.3949 27.6448 75.3949H35.7145C37.1025 75.3949 38.2276 76.5201 38.2276 77.9081V85.9778C38.2276 87.3657 37.1025 88.4909 35.7145 88.4909H27.6448C26.2568 88.4909 25.1316 87.3657 25.1316 85.9778V77.9081Z" fill="#00A0FD"/>
<path d="M0 77.9081C0 76.5201 1.12518 75.3949 2.51316 75.3949H10.5829C11.9708 75.3949 13.096 76.5201 13.096 77.9081V85.9778C13.096 87.3657 11.9708 88.4909 10.5829 88.4909H2.51316C1.12518 88.4909 0 87.3657 0 85.9778V77.9081Z" fill="#00A0FD"/>
<path d="M100.527 103.04C100.527 101.652 101.652 100.527 103.04 100.527H111.109C112.497 100.527 113.623 101.652 113.623 103.04V111.109C113.623 112.497 112.497 113.623 111.109 113.623H103.04C101.652 113.623 100.527 112.497 100.527 111.109V103.04Z" fill="#00A0FD"/>
<path d="M75.3949 103.04C75.3949 101.652 76.5201 100.527 77.9081 100.527H85.9778C87.3657 100.527 88.4909 101.652 88.4909 103.04V111.109C88.4909 112.497 87.3657 113.623 85.9778 113.623H77.9081C76.5201 113.623 75.3949 112.497 75.3949 111.109V103.04Z" fill="#00A0FD"/>
<path d="M50.2633 103.04C50.2633 101.652 51.3885 100.527 52.7764 100.527H60.8461C62.2341 100.527 63.3593 101.652 63.3593 103.04V111.109C63.3593 112.497 62.2341 113.623 60.8461 113.623H52.7764C51.3885 113.623 50.2633 112.497 50.2633 111.109V103.04Z" fill="#00A0FD"/>
<path d="M25.1316 103.04C25.1316 101.652 26.2568 100.527 27.6448 100.527H35.7145C37.1025 100.527 38.2276 101.652 38.2276 103.04V111.109C38.2276 112.497 37.1025 113.623 35.7145 113.623H27.6448C26.2568 113.623 25.1316 112.497 25.1316 111.109V103.04Z" fill="#00A0FD"/>
<path d="M0 103.04C0 101.652 1.12518 100.527 2.51316 100.527H10.5829C11.9708 100.527 13.096 101.652 13.096 103.04V111.109C13.096 112.497 11.9708 113.623 10.5829 113.623H2.51316C1.12518 113.623 0 112.497 0 111.109V103.04Z" fill="#00A0FD"/>
</g>
</svg>
