<svg width="136" height="136" viewBox="0 0 136 136" fill="none" xmlns="http://www.w3.org/2000/svg">
<g opacity="0.1">
<path d="M0 3C0 1.34315 1.34315 0 3 0H12.6329C14.2898 0 15.6329 1.34315 15.6329 3V12.6329C15.6329 14.2898 14.2898 15.6329 12.6329 15.6329H3C1.34315 15.6329 0 14.2898 0 12.6329V3Z" fill="#181D23"/>
<path d="M30 3C30 1.34315 31.3431 0 33 0H42.6329C44.2898 0 45.6329 1.34315 45.6329 3V12.6329C45.6329 14.2898 44.2898 15.6329 42.6329 15.6329H33C31.3431 15.6329 30 14.2898 30 12.6329V3Z" fill="#181D23"/>
<path d="M60 3C60 1.34315 61.3431 0 63 0H72.6329C74.2898 0 75.6329 1.34315 75.6329 3V12.6329C75.6329 14.2898 74.2898 15.6329 72.6329 15.6329H63C61.3431 15.6329 60 14.2898 60 12.6329V3Z" fill="#181D23"/>
<path d="M90 3C90 1.34315 91.3431 0 93 0H102.633C104.29 0 105.633 1.34315 105.633 3V12.6329C105.633 14.2898 104.29 15.6329 102.633 15.6329H93C91.3431 15.6329 90 14.2898 90 12.6329V3Z" fill="#181D23"/>
<path d="M120 3C120 1.34315 121.343 0 123 0H132.633C134.29 0 135.633 1.34315 135.633 3V12.6329C135.633 14.2898 134.29 15.6329 132.633 15.6329H123C121.343 15.6329 120 14.2898 120 12.6329V3Z" fill="#181D23"/>
<path d="M120 33C120 31.3431 121.343 30 123 30H132.633C134.29 30 135.633 31.3431 135.633 33V42.6329C135.633 44.2898 134.29 45.6329 132.633 45.6329H123C121.343 45.6329 120 44.2898 120 42.6329V33Z" fill="#181D23"/>
<path d="M90 33C90 31.3431 91.3431 30 93 30H102.633C104.29 30 105.633 31.3431 105.633 33V42.6329C105.633 44.2898 104.29 45.6329 102.633 45.6329H93C91.3431 45.6329 90 44.2898 90 42.6329V33Z" fill="#181D23"/>
<path d="M60 33C60 31.3431 61.3431 30 63 30H72.6329C74.2898 30 75.6329 31.3431 75.6329 33V42.6329C75.6329 44.2898 74.2898 45.6329 72.6329 45.6329H63C61.3431 45.6329 60 44.2898 60 42.6329V33Z" fill="#181D23"/>
<path d="M30 33C30 31.3431 31.3431 30 33 30H42.6329C44.2898 30 45.6329 31.3431 45.6329 33V42.6329C45.6329 44.2898 44.2898 45.6329 42.6329 45.6329H33C31.3431 45.6329 30 44.2898 30 42.6329V33Z" fill="#181D23"/>
<path d="M0 33C0 31.3431 1.34315 30 3 30H12.6329C14.2898 30 15.6329 31.3431 15.6329 33V42.6329C15.6329 44.2898 14.2898 45.6329 12.6329 45.6329H3C1.34315 45.6329 0 44.2898 0 42.6329V33Z" fill="#181D23"/>
<path d="M120 63C120 61.3431 121.343 60 123 60H132.633C134.29 60 135.633 61.3431 135.633 63V72.6329C135.633 74.2898 134.29 75.6329 132.633 75.6329H123C121.343 75.6329 120 74.2898 120 72.6329V63Z" fill="#181D23"/>
<path d="M90 63C90 61.3431 91.3431 60 93 60H102.633C104.29 60 105.633 61.3431 105.633 63V72.6329C105.633 74.2898 104.29 75.6329 102.633 75.6329H93C91.3431 75.6329 90 74.2898 90 72.6329V63Z" fill="#181D23"/>
<path d="M60 63C60 61.3431 61.3431 60 63 60H72.6329C74.2898 60 75.6329 61.3431 75.6329 63V72.6329C75.6329 74.2898 74.2898 75.6329 72.6329 75.6329H63C61.3431 75.6329 60 74.2898 60 72.6329V63Z" fill="#181D23"/>
<path d="M30 63C30 61.3431 31.3431 60 33 60H42.6329C44.2898 60 45.6329 61.3431 45.6329 63V72.6329C45.6329 74.2898 44.2898 75.6329 42.6329 75.6329H33C31.3431 75.6329 30 74.2898 30 72.6329V63Z" fill="#181D23"/>
<path d="M0 63C0 61.3431 1.34315 60 3 60H12.6329C14.2898 60 15.6329 61.3431 15.6329 63V72.6329C15.6329 74.2898 14.2898 75.6329 12.6329 75.6329H3C1.34315 75.6329 0 74.2898 0 72.6329V63Z" fill="#181D23"/>
<path d="M120 93C120 91.3431 121.343 90 123 90H132.633C134.29 90 135.633 91.3431 135.633 93V102.633C135.633 104.29 134.29 105.633 132.633 105.633H123C121.343 105.633 120 104.29 120 102.633V93Z" fill="#181D23"/>
<path d="M90 93C90 91.3431 91.3431 90 93 90H102.633C104.29 90 105.633 91.3431 105.633 93V102.633C105.633 104.29 104.29 105.633 102.633 105.633H93C91.3431 105.633 90 104.29 90 102.633V93Z" fill="#181D23"/>
<path d="M60 93C60 91.3431 61.3431 90 63 90H72.6329C74.2898 90 75.6329 91.3431 75.6329 93V102.633C75.6329 104.29 74.2898 105.633 72.6329 105.633H63C61.3431 105.633 60 104.29 60 102.633V93Z" fill="#181D23"/>
<path d="M30 93C30 91.3431 31.3431 90 33 90H42.6329C44.2898 90 45.6329 91.3431 45.6329 93V102.633C45.6329 104.29 44.2898 105.633 42.6329 105.633H33C31.3431 105.633 30 104.29 30 102.633V93Z" fill="#181D23"/>
<path d="M0 93C0 91.3431 1.34315 90 3 90H12.6329C14.2898 90 15.6329 91.3431 15.6329 93V102.633C15.6329 104.29 14.2898 105.633 12.6329 105.633H3C1.34315 105.633 0 104.29 0 102.633V93Z" fill="#181D23"/>
<path d="M120 123C120 121.343 121.343 120 123 120H132.633C134.29 120 135.633 121.343 135.633 123V132.633C135.633 134.29 134.29 135.633 132.633 135.633H123C121.343 135.633 120 134.29 120 132.633V123Z" fill="#181D23"/>
<path d="M90 123C90 121.343 91.3431 120 93 120H102.633C104.29 120 105.633 121.343 105.633 123V132.633C105.633 134.29 104.29 135.633 102.633 135.633H93C91.3431 135.633 90 134.29 90 132.633V123Z" fill="#181D23"/>
<path d="M60 123C60 121.343 61.3431 120 63 120H72.6329C74.2898 120 75.6329 121.343 75.6329 123V132.633C75.6329 134.29 74.2898 135.633 72.6329 135.633H63C61.3431 135.633 60 134.29 60 132.633V123Z" fill="#181D23"/>
<path d="M30 123C30 121.343 31.3431 120 33 120H42.6329C44.2898 120 45.6329 121.343 45.6329 123V132.633C45.6329 134.29 44.2898 135.633 42.6329 135.633H33C31.3431 135.633 30 134.29 30 132.633V123Z" fill="#181D23"/>
<path d="M0 123C0 121.343 1.34315 120 3 120H12.6329C14.2898 120 15.6329 121.343 15.6329 123V132.633C15.6329 134.29 14.2898 135.633 12.6329 135.633H3C1.34315 135.633 0 134.29 0 132.633V123Z" fill="#181D23"/>
</g>
</svg>
