<svg width="35" height="35" viewBox="0 0 35 35" fill="none" xmlns="http://www.w3.org/2000/svg">
<path d="M3.08363 29.5C2.40521 29.5 1.81159 29.275 1.30277 28.825C0.793958 28.375 0.539551 27.85 0.539551 27.25V7.75C0.539551 7.15 0.793958 6.625 1.30277 6.175C1.81159 5.725 2.40521 5.5 3.08363 5.5H31.9165C32.5949 5.5 33.1885 5.725 33.6973 6.175C34.2061 6.625 34.4606 7.15 34.4606 7.75V27.25C34.4606 27.85 34.2061 28.375 33.6973 28.825C33.1885 29.275 32.5949 29.5 31.9165 29.5H3.08363ZM17.5001 18.175L3.08363 9.8125V27.25H31.9165V9.8125L17.5001 18.175ZM17.5001 15.925L31.7469 7.75H3.29563L17.5001 15.925Z" fill="url(#paint0_linear_754_4)"/>
<defs>
<linearGradient id="paint0_linear_754_4" x1="17.5001" y1="5.5" x2="17.5001" y2="29.5" gradientUnits="userSpaceOnUse">
<stop stop-color="#006AEA"/>
<stop offset="1" stop-color="#00A0FD"/>
</linearGradient>
</defs>
</svg>
