<svg width="398" height="397" viewBox="0 0 398 397" fill="none" xmlns="http://www.w3.org/2000/svg">
<circle cx="198.511" cy="198.5" r="198.5" fill="#181D23"/>
<path d="M199.327 251.673V250.173H197.827H73.5604C73.4784 250.173 73.436 250.158 73.4205 250.152C73.419 250.151 73.4175 250.15 73.4161 250.15V145.197C73.4175 145.196 73.419 145.195 73.4205 145.195C73.436 145.188 73.4784 145.174 73.5604 145.174H192.405C192.49 145.174 192.54 145.196 192.566 145.212C192.575 145.218 192.581 145.223 192.585 145.226L247.364 258.755C253.259 270.972 270.704 271.477 277.377 259.736L337.938 153.169C344.428 141.749 335.656 128.5 323.189 128.5H275.478H273.978V130V143.674V145.174H275.478H323.189C323.208 145.174 323.225 145.175 323.24 145.176L262.802 251.524C262.797 251.533 262.794 251.538 262.791 251.542C262.79 251.543 262.789 251.544 262.788 251.545C262.787 251.546 262.785 251.546 262.782 251.547C262.778 251.549 262.769 251.552 262.757 251.555C262.732 251.56 262.686 251.567 262.615 251.565C262.544 251.562 262.5 251.553 262.478 251.546C262.471 251.544 262.466 251.543 262.462 251.541C262.461 251.539 262.46 251.537 262.458 251.535L207.669 137.983L206.35 138.62L207.669 137.983C204.834 132.108 198.837 128.5 192.405 128.5H73.5604C64.4573 128.5 56.6699 135.705 56.6699 145.086V250.26C56.6699 259.642 64.4573 266.846 73.5604 266.846H197.827H199.327V265.346V251.673ZM329.786 268.5C335.644 268.5 340.353 264.034 340.353 257.888C340.353 251.598 335.592 247.461 329.786 247.461C323.98 247.461 319.219 251.598 319.219 257.888C319.219 264.034 323.928 268.5 329.786 268.5Z" fill="url(#paint0_linear_719_25)" stroke="url(#paint1_linear_719_25)" stroke-width="3"/>
<defs>
<linearGradient id="paint0_linear_719_25" x1="198.511" y1="130" x2="198.511" y2="267" gradientUnits="userSpaceOnUse">
<stop stop-color="#006AEA"/>
<stop offset="1" stop-color="#00A0FD"/>
</linearGradient>
<linearGradient id="paint1_linear_719_25" x1="198.511" y1="130" x2="198.511" y2="267" gradientUnits="userSpaceOnUse">
<stop stop-color="#006AEA"/>
<stop offset="1" stop-color="#00A0FD"/>
</linearGradient>
</defs>
</svg>
