<svg width="60" height="70" viewBox="0 0 60 70" fill="none" xmlns="http://www.w3.org/2000/svg">
<g clip-path="url(#clip0_640_218)">
<path d="M59.9304 0.325134L54.4771 62.8283L29.964 69.7811L5.51849 62.8379L0.0708008 0.325134H59.9304Z" fill="url(#paint0_linear_640_218)"/>
<path d="M19.4002 20.7705H30.0013V13.1035H11.2104L11.3897 15.1604L13.2317 36.2885H30.0013V28.6215H20.0851L19.4002 20.7705ZM21.0891 40.1221H13.5665L14.6163 52.1603L29.9668 56.5199L30.0013 56.5103V48.5334L29.9685 48.5423L21.6227 46.2367L21.0891 40.1221Z" fill="#181D23"/>
<path d="M29.9744 36.2885H39.2021L38.3321 46.2319L29.9741 48.5399V56.5163L45.3369 52.1603L45.4495 50.8649L47.2107 30.6803L47.3935 28.6215H29.9744V36.2885ZM29.9744 20.7517V20.7705H48.0754L48.2255 19.0473L48.5672 15.1604L48.7462 13.1035H29.9744V20.7517Z" fill="#181D23"/>
</g>
<defs>
<linearGradient id="paint0_linear_640_218" x1="30.0006" y1="0.325134" x2="30.0006" y2="69.7811" gradientUnits="userSpaceOnUse">
<stop stop-color="#006AEA"/>
<stop offset="1" stop-color="#00A0FD"/>
</linearGradient>
<clipPath id="clip0_640_218">
<rect width="60" height="70" fill="white"/>
</clipPath>
</defs>
</svg>
