<svg width="395" height="344" viewBox="0 0 395 344" fill="none" xmlns="http://www.w3.org/2000/svg">
<g clip-path="url(#clip0_640_18)">
<path d="M356.147 179.023C356.199 221.589 339.743 262.518 310.24 293.205C308.461 295.067 306.635 296.885 304.76 298.657C301.904 301.373 298.952 303.984 295.904 306.49C267.39 329.979 231.793 343.178 194.857 343.958C193.626 343.986 192.391 344 191.151 344C161.693 344 124.643 328.268 91.0192 306.49C88.2373 304.689 85.4803 302.845 82.748 300.96C81.4709 300.087 80.1999 299.202 78.9352 298.304C65.9671 289.148 53.6578 279.094 42.098 268.214C34.5294 261.112 27.4321 253.524 20.8512 245.499C-4.98406 213.635 -10.6824 184.925 26.1501 179.023C30.5109 178.327 34.7433 177.582 38.8471 176.79C44.7916 175.647 50.4807 174.414 55.9143 173.089C63.2334 171.31 70.1098 169.382 76.5435 167.303C78.7076 166.607 80.8222 165.896 82.8873 165.172C113.418 154.45 133.852 140.469 147.761 125.298C150.12 122.731 152.295 120.132 154.286 117.502C157.332 113.499 160.099 109.292 162.566 104.909C165.973 98.8197 168.834 92.4411 171.116 85.8477L171.242 85.4856C182.309 53.5665 178.942 23.9599 191.151 14.0508C243.342 -28.3113 308.318 32.0163 338.815 103.159C340.353 106.743 341.799 110.35 343.153 113.978C343.761 115.598 344.348 117.222 344.913 118.849C346.399 123.088 347.748 127.338 348.958 131.6C349.423 133.225 349.865 134.848 350.286 136.471C350.737 138.221 351.169 139.967 351.568 141.713C354.536 154.496 356.147 167.103 356.147 179.023Z" fill="#F2F2F2"/>
<path d="M194.857 343.958C193.626 343.986 192.391 344 191.151 344C161.693 344 124.643 328.268 91.0192 306.49C88.2374 304.689 85.4803 302.845 82.748 300.96L85.1444 286.38L157.69 276.749L194.1 304.586L194.857 343.958Z" fill="#2F2E41"/>
<path d="M198.349 83.605H188.012C187.691 83.6052 187.384 83.7324 187.158 83.9588C186.932 84.1852 186.804 84.4921 186.804 84.8123V95.1532C186.804 95.3115 186.836 95.4682 186.896 95.6143C186.957 95.7605 187.046 95.8932 187.158 96.0049C187.271 96.1166 187.404 96.2051 187.55 96.2653C187.696 96.3256 187.853 96.3563 188.012 96.3559H198.349C198.669 96.356 198.975 96.2295 199.202 96.0041C199.428 95.7786 199.556 95.4726 199.557 95.1532V84.8123C199.556 84.4924 199.428 84.1858 199.202 83.9596C198.976 83.7334 198.669 83.606 198.349 83.605Z" fill="white"/>
<path d="M198.349 101.227H188.012C187.691 101.227 187.384 101.354 187.158 101.581C186.932 101.807 186.804 102.114 186.804 102.434V112.775C186.804 112.933 186.836 113.09 186.896 113.236C186.957 113.382 187.046 113.515 187.158 113.627C187.271 113.739 187.404 113.827 187.55 113.887C187.696 113.947 187.853 113.978 188.012 113.978H198.349C198.669 113.978 198.975 113.851 199.202 113.626C199.428 113.401 199.556 113.095 199.557 112.775V102.434C199.556 102.114 199.428 101.808 199.202 101.581C198.976 101.355 198.669 101.228 198.349 101.227Z" fill="#E6E6E6"/>
<path d="M198.349 118.849H188.012C187.691 118.849 187.384 118.976 187.158 119.203C186.932 119.429 186.804 119.736 186.804 120.056V130.392C186.804 130.551 186.835 130.708 186.895 130.855C186.956 131.001 187.045 131.135 187.157 131.247C187.269 131.359 187.403 131.448 187.549 131.508C187.696 131.569 187.853 131.6 188.012 131.6H198.349C198.67 131.599 198.977 131.472 199.203 131.246C199.429 131.02 199.557 130.713 199.557 130.392V120.056C199.556 119.736 199.428 119.43 199.202 119.203C198.976 118.977 198.669 118.85 198.349 118.849Z" fill="#E6E6E6"/>
<path d="M199.538 137.464C199.487 137.186 199.34 136.935 199.123 136.753C198.906 136.572 198.632 136.472 198.349 136.471H188.012C187.691 136.471 187.384 136.598 187.158 136.824C186.932 137.051 186.804 137.358 186.804 137.678V148.014C186.804 148.173 186.835 148.33 186.895 148.477C186.956 148.623 187.045 148.756 187.157 148.869C187.269 148.981 187.403 149.07 187.549 149.13C187.696 149.191 187.853 149.222 188.012 149.222H198.349C198.67 149.221 198.977 149.094 199.203 148.868C199.429 148.641 199.557 148.334 199.557 148.014V137.678C199.558 137.606 199.552 137.535 199.538 137.464Z" fill="#E6E6E6"/>
<path d="M198.818 154.185C198.67 154.124 198.51 154.092 198.349 154.092H188.012C187.853 154.092 187.696 154.123 187.549 154.184C187.403 154.244 187.269 154.333 187.157 154.445C187.045 154.558 186.956 154.691 186.895 154.837C186.835 154.984 186.804 155.141 186.804 155.3V165.636C186.803 165.795 186.834 165.952 186.895 166.099C186.955 166.246 187.044 166.379 187.156 166.491C187.268 166.604 187.402 166.693 187.549 166.753C187.695 166.813 187.853 166.844 188.012 166.843H198.349C198.67 166.843 198.977 166.716 199.203 166.49C199.429 166.263 199.557 165.956 199.557 165.636V155.3C199.556 155.062 199.486 154.83 199.355 154.632C199.224 154.434 199.037 154.279 198.818 154.185Z" fill="#E6E6E6"/>
<path d="M220.065 83.605H209.727C209.407 83.6052 209.1 83.7324 208.874 83.9588C208.647 84.1852 208.52 84.4921 208.52 84.8123V95.1532C208.52 95.3115 208.552 95.4682 208.612 95.6143C208.673 95.7605 208.762 95.8932 208.874 96.0049C208.986 96.1166 209.12 96.2051 209.266 96.2653C209.412 96.3256 209.569 96.3563 209.727 96.3559H220.065C220.385 96.356 220.691 96.2295 220.918 96.0041C221.144 95.7786 221.272 95.4726 221.273 95.1532V84.8123C221.272 84.4924 221.144 84.1858 220.918 83.9596C220.692 83.7334 220.385 83.606 220.065 83.605Z" fill="#E6E6E6"/>
<path d="M220.065 101.227H209.727C209.407 101.227 209.1 101.354 208.874 101.581C208.647 101.807 208.52 102.114 208.52 102.434V112.775C208.52 112.933 208.552 113.09 208.612 113.236C208.673 113.382 208.762 113.515 208.874 113.627C208.986 113.739 209.12 113.827 209.266 113.887C209.412 113.947 209.569 113.978 209.727 113.978H220.065C220.385 113.978 220.691 113.851 220.918 113.626C221.144 113.401 221.272 113.095 221.273 112.775V102.434C221.272 102.114 221.144 101.808 220.918 101.581C220.692 101.355 220.385 101.228 220.065 101.227Z" fill="url(#paint0_linear_640_18)"/>
<path d="M220.065 118.849H209.727C209.407 118.849 209.1 118.976 208.874 119.203C208.647 119.429 208.52 119.736 208.52 120.056V130.392C208.52 130.551 208.551 130.708 208.611 130.855C208.672 131.001 208.761 131.135 208.873 131.247C208.985 131.359 209.118 131.448 209.265 131.508C209.412 131.569 209.569 131.6 209.727 131.6H220.065C220.385 131.599 220.692 131.472 220.919 131.246C221.145 131.02 221.273 130.713 221.273 130.392V120.056C221.272 119.736 221.144 119.43 220.918 119.203C220.692 118.977 220.385 118.85 220.065 118.849Z" fill="url(#paint1_linear_640_18)"/>
<path d="M220.065 136.471H209.727C209.474 136.471 209.228 136.551 209.023 136.699C208.817 136.848 208.664 137.057 208.585 137.297C208.542 137.419 208.52 137.548 208.52 137.678V148.014C208.52 148.173 208.551 148.33 208.611 148.477C208.672 148.623 208.761 148.756 208.873 148.869C208.985 148.981 209.118 149.07 209.265 149.13C209.412 149.191 209.569 149.222 209.727 149.222H220.065C220.385 149.221 220.692 149.094 220.919 148.868C221.145 148.641 221.273 148.334 221.273 148.014V137.678C221.272 137.358 221.144 137.051 220.918 136.825C220.692 136.599 220.385 136.472 220.065 136.471Z" fill="url(#paint2_linear_640_18)"/>
<path d="M220.065 154.092H209.727C209.569 154.092 209.412 154.123 209.265 154.184C209.118 154.244 208.985 154.333 208.873 154.445C208.761 154.558 208.672 154.691 208.611 154.837C208.551 154.984 208.52 155.141 208.52 155.3V165.636C208.52 165.795 208.551 165.952 208.611 166.098C208.672 166.245 208.761 166.378 208.873 166.49C208.985 166.603 209.118 166.692 209.265 166.752C209.412 166.813 209.569 166.844 209.727 166.843H220.065C220.385 166.843 220.692 166.716 220.919 166.49C221.145 166.263 221.273 165.956 221.273 165.636V155.3C221.273 154.98 221.145 154.673 220.919 154.446C220.692 154.22 220.385 154.093 220.065 154.092Z" fill="#E6E6E6"/>
<path d="M241.781 83.605H231.443C231.123 83.6052 230.816 83.7324 230.59 83.9588C230.363 84.1852 230.236 84.4921 230.236 84.8123V95.1532C230.236 95.3115 230.267 95.4682 230.328 95.6143C230.389 95.7605 230.478 95.8932 230.59 96.0049C230.702 96.1166 230.835 96.2051 230.982 96.2653C231.128 96.3256 231.285 96.3563 231.443 96.3559H241.781C242.101 96.356 242.407 96.2295 242.633 96.0041C242.86 95.7786 242.987 95.4726 242.989 95.1532V84.8123C242.988 84.4924 242.86 84.1858 242.634 83.9596C242.408 83.7334 242.101 83.606 241.781 83.605Z" fill="url(#paint3_linear_640_18)"/>
<path d="M241.781 101.227H231.443C231.123 101.227 230.816 101.354 230.59 101.581C230.363 101.807 230.236 102.114 230.236 102.434V112.775C230.236 112.933 230.267 113.09 230.328 113.236C230.389 113.382 230.478 113.515 230.59 113.627C230.702 113.739 230.835 113.827 230.982 113.887C231.128 113.947 231.285 113.978 231.443 113.978H241.781C242.101 113.978 242.407 113.851 242.633 113.626C242.86 113.401 242.987 113.095 242.989 112.775V102.434C242.988 102.114 242.86 101.808 242.634 101.581C242.408 101.355 242.101 101.228 241.781 101.227Z" fill="url(#paint4_linear_640_18)"/>
<path d="M241.781 118.849H231.443C231.123 118.849 230.816 118.976 230.59 119.203C230.363 119.429 230.236 119.736 230.236 120.056V130.392C230.236 130.551 230.267 130.708 230.327 130.855C230.388 131.001 230.477 131.135 230.589 131.247C230.701 131.359 230.834 131.448 230.981 131.508C231.127 131.569 231.285 131.6 231.443 131.6H241.781C242.101 131.599 242.408 131.472 242.635 131.246C242.861 131.02 242.988 130.713 242.989 130.392V120.056C242.988 119.736 242.86 119.43 242.634 119.203C242.408 118.977 242.101 118.85 241.781 118.849Z" fill="#E6E6E6"/>
<path d="M241.781 136.471H231.443C231.123 136.471 230.816 136.598 230.59 136.824C230.363 137.051 230.236 137.358 230.236 137.678V148.014C230.236 148.173 230.267 148.33 230.327 148.477C230.388 148.623 230.477 148.756 230.589 148.869C230.701 148.981 230.834 149.07 230.981 149.13C231.127 149.191 231.285 149.222 231.443 149.222H241.781C242.101 149.221 242.408 149.094 242.635 148.868C242.861 148.641 242.988 148.334 242.989 148.014V137.678C242.988 137.358 242.86 137.051 242.634 136.825C242.408 136.599 242.101 136.472 241.781 136.471Z" fill="url(#paint5_linear_640_18)"/>
<path d="M241.781 154.092H231.443C231.285 154.092 231.127 154.123 230.981 154.184C230.834 154.244 230.701 154.333 230.589 154.445C230.477 154.558 230.388 154.691 230.327 154.837C230.267 154.984 230.236 155.141 230.236 155.3V165.636C230.236 165.795 230.267 165.952 230.327 166.098C230.388 166.245 230.477 166.378 230.589 166.49C230.701 166.603 230.834 166.692 230.981 166.752C231.127 166.813 231.285 166.844 231.443 166.843H241.781C242.101 166.843 242.408 166.716 242.635 166.49C242.861 166.263 242.988 165.956 242.989 165.636V155.3C242.988 154.98 242.861 154.673 242.635 154.446C242.408 154.22 242.101 154.093 241.781 154.092Z" fill="url(#paint6_linear_640_18)"/>
<path d="M263.497 83.605H253.159C252.839 83.6052 252.532 83.7324 252.305 83.9588C252.079 84.1852 251.952 84.4921 251.952 84.8123V95.1532C251.952 95.3115 251.983 95.4682 252.044 95.6143C252.105 95.7605 252.194 95.8932 252.306 96.0049C252.418 96.1166 252.551 96.2051 252.698 96.2654C252.844 96.3256 253.001 96.3563 253.159 96.3559H263.497C263.816 96.356 264.123 96.2295 264.349 96.0041C264.576 95.7786 264.703 95.4726 264.704 95.1532V84.8123C264.703 84.4924 264.576 84.1858 264.35 83.9596C264.123 83.7334 263.817 83.606 263.497 83.605Z" fill="url(#paint7_linear_640_18)"/>
<path d="M263.497 101.227H253.159C252.839 101.227 252.532 101.354 252.305 101.581C252.079 101.807 251.952 102.114 251.952 102.434V112.775C251.952 112.933 251.983 113.09 252.044 113.236C252.105 113.382 252.194 113.515 252.306 113.627C252.418 113.738 252.551 113.827 252.698 113.887C252.844 113.947 253.001 113.978 253.159 113.978H263.497C263.816 113.978 264.123 113.851 264.349 113.626C264.576 113.401 264.703 113.095 264.704 112.775V102.434C264.704 102.114 264.576 101.808 264.35 101.581C264.123 101.355 263.817 101.228 263.497 101.227Z" fill="white"/>
<path d="M263.497 118.849H253.159C252.839 118.849 252.532 118.976 252.305 119.203C252.079 119.429 251.952 119.736 251.952 120.056V130.392C251.951 130.551 251.982 130.708 252.043 130.855C252.104 131.001 252.192 131.135 252.305 131.247C252.417 131.359 252.55 131.448 252.697 131.508C252.843 131.569 253 131.6 253.159 131.6H263.497C263.817 131.599 264.124 131.472 264.351 131.246C264.577 131.02 264.704 130.713 264.704 130.392V120.056C264.704 119.736 264.576 119.43 264.35 119.203C264.123 118.977 263.817 118.85 263.497 118.849Z" fill="white"/>
<path d="M263.497 136.471H253.159C252.839 136.471 252.532 136.598 252.305 136.824C252.079 137.051 251.952 137.358 251.952 137.678V148.014C251.951 148.173 251.982 148.33 252.043 148.477C252.104 148.623 252.192 148.756 252.305 148.869C252.417 148.981 252.55 149.07 252.697 149.13C252.843 149.191 253 149.222 253.159 149.222H263.497C263.817 149.221 264.124 149.094 264.351 148.868C264.577 148.641 264.704 148.334 264.704 148.014V137.678C264.704 137.358 264.576 137.051 264.35 136.825C264.123 136.599 263.817 136.472 263.497 136.471Z" fill="#E6E6E6"/>
<path d="M263.497 154.092H253.159C253 154.092 252.843 154.123 252.697 154.184C252.55 154.244 252.417 154.333 252.305 154.445C252.192 154.558 252.104 154.691 252.043 154.837C251.982 154.984 251.951 155.141 251.952 155.3V165.636C251.951 165.795 251.982 165.952 252.043 166.098C252.104 166.245 252.192 166.378 252.305 166.49C252.417 166.603 252.55 166.692 252.697 166.752C252.843 166.813 253 166.844 253.159 166.843H263.497C263.817 166.843 264.124 166.716 264.351 166.49C264.577 166.263 264.704 165.956 264.704 165.636V155.3C264.704 154.98 264.577 154.673 264.351 154.446C264.124 154.22 263.817 154.093 263.497 154.092Z" fill="url(#paint8_linear_640_18)"/>
<path d="M285.213 83.605H274.871C274.551 83.6061 274.245 83.7338 274.02 83.9601C273.794 84.1864 273.668 84.4929 273.668 84.8123V95.1532C273.668 95.4722 273.795 95.778 274.02 96.0036C274.246 96.2291 274.552 96.3558 274.871 96.3559H285.213C285.533 96.356 285.839 96.2295 286.066 96.0041C286.292 95.7786 286.42 95.4726 286.421 95.1532V84.8123C286.42 84.4924 286.292 84.1858 286.066 83.9596C285.84 83.7334 285.533 83.606 285.213 83.605Z" fill="white"/>
<path d="M285.213 101.227H274.871C274.551 101.228 274.245 101.356 274.02 101.582C273.794 101.808 273.668 102.115 273.668 102.434V112.775C273.668 113.094 273.795 113.4 274.02 113.625C274.246 113.851 274.552 113.978 274.871 113.978H285.213C285.533 113.978 285.839 113.851 286.066 113.626C286.292 113.401 286.42 113.095 286.421 112.775V102.434C286.42 102.114 286.292 101.808 286.066 101.581C285.84 101.355 285.533 101.228 285.213 101.227Z" fill="white"/>
<path d="M285.213 118.849H274.871C274.551 118.85 274.245 118.978 274.02 119.204C273.794 119.43 273.668 119.737 273.668 120.056V130.392C273.668 130.551 273.698 130.707 273.759 130.854C273.819 131 273.907 131.133 274.019 131.245C274.131 131.358 274.263 131.447 274.41 131.507C274.556 131.568 274.713 131.599 274.871 131.6H285.213C285.533 131.599 285.841 131.472 286.067 131.246C286.293 131.02 286.421 130.713 286.421 130.392V120.056C286.42 119.736 286.292 119.43 286.066 119.203C285.84 118.977 285.533 118.85 285.213 118.849Z" fill="white"/>
<path d="M285.213 136.471H274.871C274.551 136.472 274.245 136.599 274.02 136.826C273.794 137.052 273.668 137.358 273.668 137.678V148.014C273.668 148.173 273.698 148.329 273.759 148.476C273.819 148.622 273.907 148.755 274.019 148.867C274.131 148.979 274.263 149.068 274.41 149.129C274.556 149.19 274.713 149.221 274.871 149.222H285.213C285.533 149.221 285.841 149.094 286.067 148.868C286.293 148.641 286.421 148.334 286.421 148.014V137.678C286.42 137.358 286.292 137.051 286.066 136.825C285.84 136.599 285.533 136.472 285.213 136.471Z" fill="url(#paint9_linear_640_18)"/>
<path d="M285.213 154.092H274.871C274.713 154.093 274.556 154.124 274.41 154.185C274.263 154.246 274.131 154.335 274.019 154.447C273.907 154.559 273.819 154.692 273.759 154.838C273.698 154.985 273.668 155.141 273.668 155.3V165.636C273.668 165.794 273.698 165.951 273.759 166.098C273.819 166.244 273.907 166.377 274.019 166.489C274.131 166.601 274.263 166.69 274.41 166.751C274.556 166.812 274.713 166.843 274.871 166.843H285.213C285.533 166.843 285.841 166.716 286.067 166.49C286.293 166.263 286.421 165.956 286.421 165.636V155.3C286.421 154.98 286.293 154.673 286.067 154.446C285.841 154.22 285.533 154.093 285.213 154.092Z" fill="#E6E6E6"/>
<path d="M306.929 83.605H296.587C296.267 83.6061 295.961 83.7338 295.736 83.9601C295.51 84.1864 295.384 84.4929 295.384 84.8123V95.1532C295.384 95.4722 295.511 95.778 295.736 96.0036C295.962 96.2291 296.268 96.3558 296.587 96.3559H306.929C307.249 96.356 307.555 96.2295 307.781 96.004C308.008 95.7786 308.135 95.4726 308.137 95.1532V84.8123C308.136 84.4924 308.008 84.1858 307.782 83.9596C307.556 83.7335 307.249 83.606 306.929 83.605Z" fill="white"/>
<path d="M306.929 101.227H296.587C296.267 101.228 295.961 101.356 295.736 101.582C295.51 101.808 295.384 102.115 295.384 102.434V112.775C295.384 113.094 295.511 113.4 295.736 113.625C295.962 113.851 296.268 113.978 296.587 113.978H306.929C307.249 113.978 307.555 113.851 307.781 113.626C308.008 113.4 308.135 113.095 308.137 112.775V102.434C308.136 102.114 308.008 101.808 307.782 101.582C307.556 101.355 307.249 101.228 306.929 101.227Z" fill="white"/>
<path d="M306.929 118.849H296.587C296.267 118.85 295.961 118.978 295.736 119.204C295.51 119.43 295.384 119.737 295.384 120.056V130.392C295.383 130.551 295.414 130.707 295.474 130.854C295.535 131 295.623 131.133 295.735 131.245C295.847 131.358 295.979 131.447 296.125 131.507C296.272 131.568 296.428 131.599 296.587 131.6H306.929C307.249 131.599 307.556 131.472 307.783 131.246C308.009 131.019 308.136 130.713 308.137 130.392V120.056C308.136 119.736 308.008 119.43 307.782 119.203C307.556 118.977 307.249 118.85 306.929 118.849Z" fill="url(#paint10_linear_640_18)"/>
<path d="M306.929 136.471H296.587C296.267 136.472 295.961 136.599 295.736 136.826C295.51 137.052 295.384 137.358 295.384 137.678V148.014C295.383 148.173 295.414 148.329 295.474 148.476C295.535 148.622 295.623 148.755 295.735 148.867C295.847 148.979 295.979 149.068 296.125 149.129C296.272 149.19 296.428 149.221 296.587 149.222H306.929C307.249 149.221 307.556 149.094 307.783 148.868C308.009 148.641 308.136 148.334 308.137 148.014V137.678C308.136 137.358 308.008 137.051 307.782 136.825C307.556 136.599 307.249 136.472 306.929 136.471Z" fill="#E6E6E6"/>
<path d="M306.929 154.092H296.587C296.428 154.093 296.272 154.124 296.125 154.185C295.979 154.246 295.847 154.335 295.735 154.447C295.623 154.559 295.535 154.692 295.474 154.838C295.414 154.985 295.383 155.141 295.384 155.3V165.636C295.383 165.794 295.414 165.951 295.474 166.098C295.535 166.244 295.623 166.377 295.735 166.489C295.847 166.601 295.979 166.69 296.125 166.751C296.272 166.812 296.428 166.843 296.587 166.843H306.929C307.249 166.843 307.556 166.716 307.783 166.49C308.009 166.263 308.136 165.956 308.137 165.636V155.3C308.136 154.98 308.009 154.673 307.783 154.446C307.556 154.22 307.249 154.093 306.929 154.092Z" fill="white"/>
<path d="M328.645 83.605H318.302C317.983 83.6061 317.677 83.7338 317.452 83.9601C317.226 84.1864 317.1 84.4929 317.1 84.8123V95.1532C317.1 95.4722 317.226 95.778 317.452 96.0036C317.678 96.2291 317.983 96.3558 318.302 96.3559H328.645C328.964 96.356 329.271 96.2295 329.497 96.004C329.724 95.7786 329.851 95.4726 329.852 95.1532V84.8123C329.851 84.4924 329.724 84.1858 329.498 83.9596C329.271 83.7335 328.965 83.606 328.645 83.605Z" fill="url(#paint11_linear_640_18)"/>
<path d="M328.645 101.227H318.302C317.983 101.228 317.677 101.356 317.451 101.582C317.226 101.808 317.099 102.115 317.1 102.434V112.775C317.1 113.094 317.226 113.4 317.452 113.625C317.678 113.851 317.983 113.978 318.302 113.978H328.645C328.964 113.978 329.271 113.851 329.497 113.626C329.724 113.4 329.851 113.095 329.852 112.775V102.434C329.851 102.114 329.724 101.808 329.498 101.582C329.271 101.355 328.965 101.228 328.645 101.227Z" fill="url(#paint12_linear_640_18)"/>
<path d="M328.645 118.849H318.302C317.983 118.85 317.677 118.978 317.451 119.204C317.226 119.43 317.099 119.737 317.1 120.056V130.392C317.099 130.551 317.13 130.707 317.19 130.854C317.25 131 317.339 131.133 317.451 131.245C317.562 131.358 317.695 131.447 317.841 131.507C317.987 131.568 318.144 131.599 318.302 131.6H328.645C328.965 131.599 329.272 131.472 329.499 131.246C329.725 131.019 329.852 130.713 329.852 130.392V120.056C329.851 119.736 329.724 119.43 329.498 119.203C329.271 118.977 328.965 118.85 328.645 118.849Z" fill="#E6E6E6"/>
<path d="M328.645 136.471H318.302C317.983 136.472 317.677 136.599 317.452 136.826C317.226 137.052 317.1 137.358 317.1 137.678V148.014C317.099 148.173 317.13 148.329 317.19 148.476C317.25 148.622 317.339 148.755 317.451 148.867C317.562 148.979 317.695 149.068 317.841 149.129C317.987 149.19 318.144 149.221 318.302 149.222H328.645C328.965 149.221 329.272 149.094 329.499 148.868C329.725 148.641 329.852 148.334 329.852 148.014V137.678C329.851 137.358 329.724 137.051 329.498 136.825C329.271 136.599 328.965 136.472 328.645 136.471Z" fill="white"/>
<path d="M328.645 154.092H318.302C318.144 154.093 317.987 154.124 317.841 154.185C317.695 154.246 317.562 154.335 317.451 154.447C317.339 154.559 317.25 154.692 317.19 154.838C317.13 154.985 317.099 155.141 317.1 155.3V165.636C317.099 165.794 317.13 165.951 317.19 166.098C317.25 166.244 317.339 166.377 317.451 166.489C317.562 166.601 317.695 166.69 317.841 166.751C317.987 166.812 318.144 166.843 318.302 166.843H328.645C328.965 166.843 329.272 166.716 329.499 166.49C329.725 166.263 329.852 165.956 329.852 165.636V155.3C329.852 154.98 329.725 154.673 329.499 154.446C329.272 154.22 328.965 154.093 328.645 154.092Z" fill="url(#paint13_linear_640_18)"/>
<path d="M350.361 83.605H340.018C339.699 83.6061 339.393 83.7338 339.167 83.9601C338.942 84.1864 338.815 84.4929 338.815 84.8123V95.1532C338.815 95.4722 338.942 95.778 339.168 96.0036C339.393 96.2291 339.699 96.3558 340.018 96.3559H350.361C350.68 96.356 350.987 96.2295 351.213 96.004C351.439 95.7786 351.567 95.4726 351.568 95.1532V84.8123C351.567 84.4924 351.44 84.1858 351.213 83.9596C350.987 83.7335 350.681 83.606 350.361 83.605Z" fill="url(#paint14_linear_640_18)"/>
<path d="M350.361 101.227H340.018C339.699 101.228 339.393 101.356 339.167 101.582C338.942 101.808 338.815 102.115 338.815 102.434V112.775C338.815 113.094 338.942 113.4 339.168 113.625C339.393 113.851 339.699 113.978 340.018 113.978H350.361C350.68 113.978 350.987 113.851 351.213 113.626C351.439 113.4 351.567 113.095 351.568 112.775V102.434C351.567 102.114 351.44 101.808 351.213 101.582C350.987 101.355 350.681 101.228 350.361 101.227Z" fill="url(#paint15_linear_640_18)"/>
<path d="M350.361 118.849H340.018C339.699 118.85 339.393 118.978 339.167 119.204C338.942 119.43 338.815 119.737 338.815 120.056V130.392C338.815 130.551 338.846 130.707 338.906 130.854C338.966 131 339.055 131.133 339.166 131.245C339.278 131.358 339.411 131.447 339.557 131.507C339.703 131.568 339.86 131.599 340.018 131.6H350.361C350.681 131.599 350.988 131.472 351.214 131.246C351.441 131.019 351.568 130.713 351.568 130.392V120.056C351.567 119.736 351.44 119.43 351.214 119.203C350.987 118.977 350.681 118.85 350.361 118.849Z" fill="#E6E6E6"/>
<path d="M350.361 136.471H340.018C339.699 136.472 339.393 136.599 339.167 136.826C338.942 137.052 338.815 137.358 338.815 137.678V148.014C338.815 148.173 338.846 148.329 338.906 148.476C338.966 148.622 339.055 148.755 339.166 148.867C339.278 148.979 339.411 149.068 339.557 149.129C339.703 149.19 339.86 149.221 340.018 149.222H350.361C350.681 149.221 350.988 149.094 351.214 148.868C351.441 148.641 351.568 148.334 351.568 148.014V137.678C351.567 137.358 351.44 137.051 351.213 136.825C350.987 136.599 350.681 136.472 350.361 136.471Z" fill="url(#paint16_linear_640_18)"/>
<path d="M350.361 154.092H340.018C339.86 154.093 339.703 154.124 339.557 154.185C339.411 154.246 339.278 154.335 339.166 154.447C339.055 154.559 338.966 154.692 338.906 154.838C338.846 154.985 338.815 155.141 338.815 155.3V165.636C338.815 165.794 338.846 165.951 338.906 166.098C338.966 166.244 339.055 166.377 339.166 166.489C339.278 166.601 339.411 166.69 339.557 166.751C339.703 166.812 339.86 166.843 340.018 166.843H350.361C350.681 166.843 350.988 166.716 351.214 166.49C351.441 166.263 351.568 165.956 351.568 165.636V155.3C351.568 154.98 351.441 154.673 351.214 154.446C350.988 154.22 350.681 154.093 350.361 154.092Z" fill="url(#paint17_linear_640_18)"/>
<path d="M372.077 83.605H361.734C361.415 83.6061 361.109 83.7338 360.883 83.9601C360.658 84.1864 360.531 84.4929 360.531 84.8123V95.1532C360.531 95.4722 360.658 95.778 360.884 96.0036C361.109 96.2291 361.415 96.3558 361.734 96.3559H372.077C372.396 96.356 372.702 96.2295 372.929 96.004C373.155 95.7786 373.283 95.4726 373.284 95.1532V84.8123C373.283 84.4924 373.156 84.1858 372.929 83.9596C372.703 83.7335 372.396 83.606 372.077 83.605Z" fill="#E6E6E6"/>
<path d="M372.077 101.227H361.734C361.415 101.228 361.109 101.356 360.883 101.582C360.658 101.808 360.531 102.115 360.531 102.434V112.775C360.531 113.094 360.658 113.4 360.884 113.625C361.109 113.851 361.415 113.978 361.734 113.978H372.077C372.396 113.978 372.702 113.851 372.929 113.626C373.155 113.4 373.283 113.095 373.284 112.775V102.434C373.283 102.114 373.156 101.808 372.929 101.582C372.703 101.355 372.396 101.228 372.077 101.227Z" fill="url(#paint18_linear_640_18)"/>
<path d="M372.077 118.849H361.734C361.415 118.85 361.109 118.978 360.883 119.204C360.658 119.43 360.531 119.737 360.531 120.056V130.392C360.531 130.551 360.562 130.707 360.622 130.854C360.682 131 360.771 131.133 360.882 131.245C360.994 131.358 361.127 131.447 361.273 131.507C361.419 131.568 361.576 131.599 361.734 131.6H372.077C372.397 131.599 372.704 131.472 372.93 131.246C373.157 131.019 373.284 130.713 373.284 130.392V120.056C373.283 119.736 373.156 119.43 372.929 119.203C372.703 118.977 372.396 118.85 372.077 118.849Z" fill="url(#paint19_linear_640_18)"/>
<path d="M372.077 136.471H361.734C361.415 136.472 361.109 136.599 360.883 136.826C360.658 137.052 360.531 137.358 360.531 137.678V148.014C360.531 148.173 360.562 148.329 360.622 148.476C360.682 148.622 360.771 148.755 360.882 148.867C360.994 148.979 361.127 149.068 361.273 149.129C361.419 149.19 361.576 149.221 361.734 149.222H372.077C372.397 149.221 372.704 149.094 372.93 148.868C373.157 148.641 373.284 148.334 373.284 148.014V137.678C373.283 137.358 373.156 137.051 372.929 136.825C372.703 136.599 372.396 136.472 372.077 136.471Z" fill="url(#paint20_linear_640_18)"/>
<path d="M372.077 154.092H361.734C361.576 154.093 361.419 154.124 361.273 154.185C361.127 154.246 360.994 154.335 360.882 154.447C360.771 154.559 360.682 154.692 360.622 154.838C360.562 154.985 360.531 155.141 360.531 155.3V165.636C360.531 165.794 360.562 165.951 360.622 166.098C360.682 166.244 360.771 166.377 360.882 166.489C360.994 166.601 361.127 166.69 361.273 166.751C361.419 166.812 361.576 166.843 361.734 166.843H372.077C372.397 166.843 372.704 166.716 372.93 166.49C373.157 166.263 373.284 165.956 373.284 165.636V155.3C373.284 154.98 373.157 154.673 372.93 154.446C372.704 154.22 372.397 154.093 372.077 154.092Z" fill="#E6E6E6"/>
<path d="M393.792 83.605H383.45C383.13 83.6062 382.824 83.7338 382.599 83.9601C382.374 84.1864 382.247 84.4928 382.247 84.8123V95.1532C382.247 95.4722 382.374 95.778 382.599 96.0036C382.825 96.2291 383.131 96.3558 383.45 96.3559H393.792C394.112 96.356 394.418 96.2295 394.645 96.004C394.871 95.7786 394.999 95.4726 395 95.1532V84.8123C394.999 84.4924 394.871 84.1858 394.645 83.9596C394.419 83.7335 394.112 83.606 393.792 83.605Z" fill="#E6E6E6"/>
<path d="M393.792 101.227H383.45C383.13 101.228 382.824 101.356 382.599 101.582C382.374 101.808 382.247 102.115 382.247 102.434V112.775C382.247 113.094 382.374 113.4 382.599 113.625C382.825 113.851 383.131 113.978 383.45 113.978H393.792C394.112 113.978 394.418 113.851 394.645 113.626C394.871 113.4 394.999 113.095 395 112.775V102.434C394.999 102.114 394.871 101.808 394.645 101.582C394.419 101.355 394.112 101.228 393.792 101.227Z" fill="#E6E6E6"/>
<path d="M393.792 118.849H383.45C383.13 118.85 382.824 118.978 382.599 119.204C382.374 119.43 382.247 119.737 382.247 120.056V130.392C382.247 130.551 382.277 130.707 382.338 130.854C382.398 131 382.486 131.133 382.598 131.245C382.71 131.358 382.843 131.447 382.989 131.507C383.135 131.568 383.292 131.599 383.45 131.6H393.792C394.113 131.599 394.42 131.472 394.646 131.246C394.872 131.019 395 130.713 395 130.392V120.056C394.999 119.736 394.871 119.43 394.645 119.203C394.419 118.977 394.112 118.85 393.792 118.849Z" fill="url(#paint21_linear_640_18)"/>
<path d="M393.792 136.471H383.45C383.13 136.472 382.824 136.599 382.599 136.826C382.374 137.052 382.247 137.358 382.247 137.678V148.014C382.247 148.173 382.277 148.329 382.338 148.476C382.398 148.622 382.486 148.755 382.598 148.867C382.71 148.979 382.843 149.068 382.989 149.129C383.135 149.19 383.292 149.221 383.45 149.222H393.792C394.113 149.221 394.42 149.094 394.646 148.868C394.872 148.641 395 148.334 395 148.014V137.678C394.999 137.358 394.871 137.051 394.645 136.825C394.419 136.599 394.112 136.472 393.792 136.471Z" fill="#E6E6E6"/>
<path d="M393.792 154.092H383.45C383.292 154.093 383.135 154.124 382.989 154.185C382.843 154.246 382.71 154.335 382.598 154.447C382.486 154.559 382.398 154.692 382.338 154.838C382.277 154.985 382.247 155.141 382.247 155.3V165.636C382.247 165.794 382.277 165.951 382.338 166.098C382.398 166.244 382.486 166.377 382.598 166.489C382.71 166.601 382.843 166.69 382.989 166.751C383.135 166.812 383.292 166.843 383.45 166.843H393.792C394.113 166.843 394.42 166.716 394.646 166.49C394.872 166.263 395 165.956 395 165.636V155.3C395 154.98 394.872 154.673 394.646 154.446C394.42 154.22 394.113 154.093 393.792 154.092Z" fill="#E6E6E6"/>
<path d="M156.087 306.491H155.799L156.045 306.458L156.087 306.491Z" fill="#2F2E41"/>
<path d="M131.342 113.79C148.866 113.79 163.072 99.586 163.072 82.0649C163.072 64.5437 148.866 50.34 131.342 50.34C113.819 50.34 99.6128 64.5437 99.6128 82.0649C99.6128 99.586 113.819 113.79 131.342 113.79Z" fill="#7E5B47"/>
<path d="M159.129 58.8047C159.129 58.8047 167.428 42.9423 149.17 41.5002C149.17 41.5002 133.606 27.3831 117.741 38.9194C117.741 38.9194 109.087 38.9194 104.355 48.7104C104.355 48.7104 97.5494 46.1296 96.0537 53.0365C96.0537 53.0365 91.0736 67.457 96.0537 80.4353C101.034 93.4137 102.688 94.8557 102.688 94.8557C102.688 94.8557 94.5047 67.6459 114.424 66.2038C134.343 64.7617 156.633 52.3155 158.293 68.1779C159.953 84.0403 162.451 87.9487 162.451 87.9487C162.451 87.9487 178.217 65.2939 159.129 58.8047Z" fill="#2F2E41"/>
<path d="M213.419 160.25L213.317 160.788L212.17 166.843L204.243 208.727L203.774 211.193L202.789 216.408L201.442 223.521L198.456 239.286L197.602 243.804L197.281 245.499L197.17 246.093L196.283 250.769L196.013 252.181L193.849 268.214L191.959 282.186L198.284 288.511L194.513 292.281L192.038 306.458L192.042 306.49H91.019C86.9322 303.844 82.9042 301.115 78.935 298.304L79.7663 292.082C79.7663 292.082 82.627 280.97 81.4242 279.642C80.2261 278.314 77.5974 275.941 77.5974 275.941L80.9087 268.214L81.3685 267.142L80.5976 251.154L80.579 250.769L80.3236 245.499L80.2911 244.821L80.24 243.804L79.2601 223.521L79.2415 223.187L78.9443 217.039L78.6656 211.193L78.5449 208.727L77.3514 184.057L76.5433 167.303L75.8374 152.718L78.675 151.757L109.024 141.444L121.596 125.103L147.761 125.298L160.569 125.396L181.942 145.214L186.804 147.536L186.841 147.554L190.329 149.221L199.171 153.442L208.52 157.909L213.317 160.199L213.419 160.25Z" fill="#CACACA"/>
<path d="M124.977 258.896C123.06 259.638 121.003 259.952 118.952 259.814C116.9 259.675 114.904 259.089 113.103 258.096C111.303 257.103 109.742 255.728 108.531 254.066C107.319 252.405 106.487 250.498 106.093 248.48L56.6055 241.46L73.8086 222.003L118.165 231.653C121.599 231.215 125.075 232.051 127.933 234.004C130.791 235.957 132.834 238.891 133.674 242.249C134.513 245.607 134.092 249.156 132.489 252.224C130.886 255.292 128.214 257.666 124.977 258.896V258.896Z" fill="#7E5B47"/>
<path d="M102.913 223.521C101.996 222.359 100.698 221.558 99.2483 221.26L78.9443 217.039L76.8591 216.607C75.6472 216.354 74.5025 215.848 73.4997 215.123C72.4969 214.397 71.6587 213.468 71.0399 212.396C70.3981 211.27 70.0098 210.018 69.9021 208.727C69.8053 207.553 69.9459 206.372 70.3154 205.254L77.3513 184.057L81.9164 170.303C82.4697 168.644 82.7962 166.918 82.8871 165.172C83.1414 160.339 81.646 155.577 78.6748 151.757C76.0627 148.399 72.4396 145.971 68.341 144.83C64.2423 143.69 59.8854 143.898 55.914 145.423C55.7979 145.465 55.6772 145.511 55.5611 145.558C52.7129 146.695 50.1684 148.479 48.1284 150.768C46.0884 153.058 44.6089 155.79 43.8068 158.75L38.8469 176.79L28.6159 213.979C27.5917 217.705 27.3848 221.608 28.0093 225.422C28.6338 229.235 30.075 232.869 32.2342 236.073C34.3935 239.278 37.2198 241.979 40.5197 243.99C43.8195 246.002 47.5151 247.277 51.3535 247.728L80.5975 251.154L94.1305 252.742C95.6953 252.93 97.2736 252.522 98.5508 251.599C99.8281 250.675 100.711 249.305 101.022 247.76C101.044 247.676 101.061 247.591 101.073 247.505L101.399 245.499L104.153 228.606L104.18 228.434C104.324 227.572 104.285 226.689 104.067 225.843C103.848 224.997 103.455 224.206 102.913 223.521Z" fill="#CACACA"/>
<path d="M156.499 259.437C158.502 259.902 160.582 259.922 162.594 259.496C164.605 259.07 166.499 258.208 168.142 256.971C169.784 255.734 171.135 254.153 172.1 252.337C173.065 250.521 173.62 248.516 173.726 246.463L221.728 232.536L201.953 215.699L159.401 231.506C155.939 231.556 152.616 232.875 150.062 235.211C147.508 237.548 145.899 240.74 145.542 244.183C145.184 247.626 146.102 251.08 148.121 253.892C150.141 256.703 153.121 258.676 156.499 259.437V259.437Z" fill="#7E5B47"/>
<path d="M245.562 201.381L222.731 148.845C220.864 144.532 217.529 141.02 213.318 138.932C212.016 138.291 210.649 137.793 209.24 137.446C209.022 137.39 208.803 137.339 208.585 137.297C205.598 136.645 202.5 136.703 199.539 137.464C196.832 138.16 194.302 139.417 192.114 141.156C189.926 142.895 188.13 145.075 186.841 147.554C186.827 147.575 186.815 147.597 186.804 147.619C185.365 150.403 184.6 153.486 184.57 156.619C184.54 159.752 185.247 162.849 186.632 165.659L186.916 166.226L203.049 198.623C203.6 199.731 203.911 200.943 203.96 202.179C204.01 203.415 203.797 204.648 203.337 205.796C202.877 206.945 202.178 207.983 201.288 208.842C200.399 209.702 199.337 210.364 198.173 210.784L197.04 211.193L176.662 218.553C175.132 219.098 173.875 220.216 173.153 221.67C172.432 223.124 172.302 224.802 172.793 226.349L172.844 226.512L178.556 244.788C178.584 244.872 178.612 244.955 178.645 245.039C178.695 245.197 178.757 245.35 178.83 245.499C179.437 246.86 180.51 247.96 181.856 248.601C183.202 249.242 184.733 249.382 186.173 248.995L197.17 246.093L199.413 245.499L227.812 237.999C231.549 237.012 235.028 235.229 238.011 232.773C240.995 230.316 243.412 227.244 245.098 223.766C246.783 220.289 247.698 216.488 247.778 212.624C247.858 208.761 247.102 204.926 245.562 201.381L245.562 201.381Z" fill="#CACACA"/>
<path d="M20.8511 245.499C27.432 253.524 34.5293 261.112 42.0979 268.214H251.998C254.02 268.218 255.959 269.023 257.388 270.453C258.818 271.883 259.622 273.822 259.624 275.844L259.926 329.025C272.839 323.093 284.931 315.519 295.904 306.49C298.95 303.987 301.902 301.376 304.76 298.657C306.632 296.883 308.458 295.066 310.24 293.205C323.598 279.291 334.415 263.145 342.201 245.499H20.8511Z" fill="#20272F"/>
<path d="M310.24 293.205C308.462 295.067 306.635 296.885 304.76 298.657H260.079V293.205H310.24Z" fill="white"/>
<path d="M213.001 118.849C212.781 118.441 212.454 118.101 212.056 117.864C211.658 117.627 211.203 117.502 210.74 117.502H58.4869C57.8043 117.504 57.1502 117.776 56.668 118.259C56.1857 118.742 55.9146 119.397 55.9141 120.079V211.193H213.317V120.079C213.32 119.649 213.211 119.225 213.001 118.849Z" fill="#20272F"/>
<path d="M55.7764 208.726V219.97C55.7764 220.436 55.8682 220.897 56.0466 221.328C56.225 221.759 56.4865 222.15 56.8161 222.479C57.1457 222.809 57.5371 223.071 57.9678 223.249C58.3985 223.427 58.8601 223.519 59.3263 223.519H117.423V245.709H116.651C116.59 245.709 116.53 245.72 116.474 245.744C116.418 245.767 116.368 245.801 116.325 245.844C116.282 245.886 116.248 245.937 116.225 245.993C116.202 246.049 116.19 246.109 116.19 246.17V247.713C116.19 247.773 116.202 247.833 116.225 247.889C116.248 247.945 116.282 247.996 116.325 248.039C116.368 248.082 116.418 248.116 116.474 248.139C116.53 248.162 116.59 248.174 116.651 248.174H152.716C152.777 248.174 152.837 248.162 152.893 248.139C152.949 248.116 153 248.082 153.042 248.039C153.085 247.996 153.119 247.945 153.142 247.889C153.166 247.833 153.178 247.773 153.178 247.713V246.17C153.178 246.109 153.166 246.049 153.142 245.993C153.119 245.937 153.085 245.886 153.042 245.844C153 245.801 152.949 245.767 152.893 245.744C152.837 245.72 152.777 245.709 152.716 245.709H151.945V223.519H210.041C210.507 223.519 210.969 223.427 211.399 223.249C211.83 223.071 212.222 222.809 212.551 222.479C212.881 222.15 213.142 221.759 213.321 221.328C213.499 220.897 213.591 220.436 213.591 219.97V208.726H55.7764Z" fill="#20272F"/>
<path d="M132.777 176.456C140.807 176.456 147.316 169.947 147.316 161.919C147.316 153.89 140.807 147.382 132.777 147.382C124.747 147.382 118.238 153.89 118.238 161.919C118.238 169.947 124.747 176.456 132.777 176.456Z" fill="url(#paint22_linear_640_18)"/>
<path d="M169.82 80.3314H167.498C167.498 62.7792 150.125 51.2774 132.598 51.2681C130.049 51.2606 127.505 51.5079 125.005 52.0064C122.19 52.5682 119.269 53.2415 116.399 54.1191C105.081 57.5878 94.5857 64.2929 94.5857 80.3314C94.5833 83.4462 94.9797 86.5484 95.7653 89.5625L93.5176 90.1476C92.6839 86.9422 92.2625 83.6435 92.2637 80.3314C92.2637 66.3175 98.0177 56.6916 107.956 50.9523C113.181 47.9341 119.557 45.9885 126.862 45.0412C129.902 44.6368 132.976 44.5435 136.035 44.7626C156.19 46.2113 169.82 61.6647 169.82 80.3314Z" fill="url(#paint23_linear_640_18)"/>
<path d="M173.689 81.6176L172.774 74.8567C172.549 73.1493 171.726 71.5768 170.452 70.4176C169.634 69.6619 168.655 69.1019 167.589 68.7801C166.523 68.4584 165.398 68.3832 164.299 68.5602L162.845 68.7599C162.447 68.8122 162.064 68.943 161.717 69.1447C161.37 69.3464 161.067 69.6149 160.825 69.9347C160.581 70.2534 160.402 70.6173 160.299 71.0054C160.196 71.3936 160.171 71.7982 160.226 72.196L162.339 87.7701C162.426 88.4049 162.71 88.9962 163.152 89.4604C163.594 89.9246 164.17 90.2381 164.8 90.3565C164.987 90.3939 165.177 90.4126 165.367 90.4123C165.504 90.4122 165.64 90.4029 165.776 90.3844L167.401 90.1662C168.392 90.0347 169.346 89.702 170.203 89.1885C171.061 88.6751 171.805 87.9917 172.389 87.1804C172.514 87.004 172.635 86.8229 172.746 86.6371C173.617 85.1178 173.949 83.3492 173.689 81.6176Z" fill="url(#paint24_linear_640_18)"/>
<path d="M161.907 69.0432C161.481 69.2503 161.11 69.5559 160.825 69.9347C160.581 70.2534 160.402 70.6173 160.299 71.0055C160.196 71.3936 160.171 71.7982 160.226 72.196L162.339 87.7702C162.426 88.4049 162.71 88.9962 163.152 89.4604C163.594 89.9246 164.17 90.2381 164.8 90.3566L161.907 69.0432Z" fill="white"/>
<path d="M173.689 81.6176L172.774 74.8567C172.549 73.1494 171.726 71.5769 170.452 70.4176L172.556 85.9128C172.587 86.1615 172.651 86.405 172.746 86.6371C173.617 85.1178 173.949 83.3492 173.689 81.6176Z" fill="#20272F"/>
<path d="M166.459 86.4889C167.094 86.4027 167.413 84.8908 167.172 83.1119C166.931 81.3331 166.22 79.9609 165.585 80.0471C164.949 80.1333 164.63 81.6452 164.871 83.424C165.112 85.2029 165.823 86.5751 166.459 86.4889Z" fill="#20272F"/>
<path d="M165.065 78.1307C165.7 78.0445 166.02 76.5326 165.779 74.7537C165.537 72.9749 164.826 71.6027 164.191 71.6889C163.556 71.7751 163.236 73.287 163.478 75.0658C163.719 76.8447 164.43 78.2169 165.065 78.1307Z" fill="#20272F"/>
<path d="M173.889 81.3811C174.524 81.2949 174.844 79.783 174.602 78.0041C174.361 76.2253 173.65 74.8531 173.015 74.9393C172.379 75.0255 172.06 76.5374 172.301 78.3162C172.543 80.0951 173.253 81.4673 173.889 81.3811Z" fill="#20272F"/>
<path d="M132.598 51.268C130.048 51.2606 127.505 51.5079 125.005 52.0063C122.19 52.5682 119.269 53.2415 116.399 54.1191C111.917 53.9009 108.62 52.74 107.956 50.9523C113.181 47.934 119.557 45.9884 126.862 45.0412C129.902 44.6368 132.975 44.5435 136.034 44.7626C136.358 44.9524 136.638 45.2086 136.856 45.5143C137.074 45.82 137.224 46.1683 137.298 46.5364C137.516 48.1523 135.672 49.8704 132.598 51.268Z" fill="#20272F"/>
<path d="M102.95 96.4441L99.3738 81.5805C99.2463 81.0442 98.9632 80.5576 98.56 80.1817C98.1568 79.8058 97.6515 79.5574 97.1075 79.4677C96.9539 79.4438 96.7986 79.4314 96.6431 79.4305C96.424 79.4313 96.2058 79.4578 95.9929 79.5095L94.609 79.8438C92.8271 80.2747 91.289 81.3948 90.3321 82.9583C89.3752 84.5218 89.0778 86.4009 89.5051 88.1834L91.1073 94.8514C91.4731 96.4212 92.3444 97.8275 93.5873 98.8541C93.7887 99.0166 93.9996 99.167 94.2189 99.3045C94.9973 99.7923 95.8657 100.119 96.7726 100.266C97.6795 100.413 98.6066 100.376 99.4992 100.159L100.879 99.8246C101.243 99.7395 101.586 99.5798 101.886 99.3556C102.332 99.0304 102.672 98.58 102.861 98.0616C103.05 97.5432 103.081 96.9802 102.95 96.4441Z" fill="url(#paint25_linear_640_18)"/>
<path d="M95.4532 93.6786C96.0766 93.5286 96.2415 91.9921 95.8214 90.2468C95.4014 88.5014 94.5555 87.2082 93.932 87.3582C93.3086 87.5082 93.1437 89.0446 93.5638 90.79C93.9839 92.5353 94.8298 93.8286 95.4532 93.6786Z" fill="#20272F"/>
<path d="M90.8092 95.0716C91.4326 94.9216 91.5974 93.3851 91.1774 91.6398C90.7573 89.8945 89.9114 88.6012 89.288 88.7512C88.6646 88.9012 88.4997 90.4377 88.9198 92.183C89.3398 93.9283 90.1857 95.2216 90.8092 95.0716Z" fill="#20272F"/>
<path d="M103.177 96.3884L99.6013 81.5247C99.4619 80.9445 99.1545 80.4183 98.7175 80.0119C98.2806 79.6056 97.7334 79.3371 97.1445 79.2401L102.026 99.5413C102.508 99.1883 102.874 98.7005 103.079 98.1393C103.284 97.5782 103.318 96.9689 103.177 96.3884Z" fill="white"/>
<path d="M90.3135 85.2395C90.2148 84.8262 90.0296 84.4384 89.7701 84.1019C89.2674 85.4035 89.1751 86.8278 89.5054 88.1835L91.1076 94.8514C91.4734 96.4213 92.3447 97.8275 93.5876 98.8541L90.3135 85.2395Z" fill="#20272F"/>
</g>
<defs>
<linearGradient id="paint0_linear_640_18" x1="214.896" y1="101.227" x2="214.896" y2="113.978" gradientUnits="userSpaceOnUse">
<stop stop-color="#006AEA"/>
<stop offset="1" stop-color="#00A0FD"/>
</linearGradient>
<linearGradient id="paint1_linear_640_18" x1="214.896" y1="118.849" x2="214.896" y2="131.6" gradientUnits="userSpaceOnUse">
<stop stop-color="#006AEA"/>
<stop offset="1" stop-color="#00A0FD"/>
</linearGradient>
<linearGradient id="paint2_linear_640_18" x1="214.896" y1="136.471" x2="214.896" y2="149.222" gradientUnits="userSpaceOnUse">
<stop stop-color="#006AEA"/>
<stop offset="1" stop-color="#00A0FD"/>
</linearGradient>
<linearGradient id="paint3_linear_640_18" x1="236.612" y1="83.605" x2="236.612" y2="96.3559" gradientUnits="userSpaceOnUse">
<stop stop-color="#006AEA"/>
<stop offset="1" stop-color="#00A0FD"/>
</linearGradient>
<linearGradient id="paint4_linear_640_18" x1="236.612" y1="101.227" x2="236.612" y2="113.978" gradientUnits="userSpaceOnUse">
<stop stop-color="#006AEA"/>
<stop offset="1" stop-color="#00A0FD"/>
</linearGradient>
<linearGradient id="paint5_linear_640_18" x1="236.612" y1="136.471" x2="236.612" y2="149.222" gradientUnits="userSpaceOnUse">
<stop stop-color="#006AEA"/>
<stop offset="1" stop-color="#00A0FD"/>
</linearGradient>
<linearGradient id="paint6_linear_640_18" x1="236.612" y1="154.092" x2="236.612" y2="166.843" gradientUnits="userSpaceOnUse">
<stop stop-color="#006AEA"/>
<stop offset="1" stop-color="#00A0FD"/>
</linearGradient>
<linearGradient id="paint7_linear_640_18" x1="258.328" y1="83.605" x2="258.328" y2="96.3559" gradientUnits="userSpaceOnUse">
<stop stop-color="#006AEA"/>
<stop offset="1" stop-color="#00A0FD"/>
</linearGradient>
<linearGradient id="paint8_linear_640_18" x1="258.328" y1="154.092" x2="258.328" y2="166.843" gradientUnits="userSpaceOnUse">
<stop stop-color="#006AEA"/>
<stop offset="1" stop-color="#00A0FD"/>
</linearGradient>
<linearGradient id="paint9_linear_640_18" x1="280.044" y1="136.471" x2="280.044" y2="149.222" gradientUnits="userSpaceOnUse">
<stop stop-color="#006AEA"/>
<stop offset="1" stop-color="#00A0FD"/>
</linearGradient>
<linearGradient id="paint10_linear_640_18" x1="301.76" y1="118.849" x2="301.76" y2="131.6" gradientUnits="userSpaceOnUse">
<stop stop-color="#006AEA"/>
<stop offset="1" stop-color="#00A0FD"/>
</linearGradient>
<linearGradient id="paint11_linear_640_18" x1="323.476" y1="83.605" x2="323.476" y2="96.3559" gradientUnits="userSpaceOnUse">
<stop stop-color="#006AEA"/>
<stop offset="1" stop-color="#00A0FD"/>
</linearGradient>
<linearGradient id="paint12_linear_640_18" x1="323.476" y1="101.227" x2="323.476" y2="113.978" gradientUnits="userSpaceOnUse">
<stop stop-color="#006AEA"/>
<stop offset="1" stop-color="#00A0FD"/>
</linearGradient>
<linearGradient id="paint13_linear_640_18" x1="323.476" y1="154.092" x2="323.476" y2="166.843" gradientUnits="userSpaceOnUse">
<stop stop-color="#006AEA"/>
<stop offset="1" stop-color="#00A0FD"/>
</linearGradient>
<linearGradient id="paint14_linear_640_18" x1="345.192" y1="83.605" x2="345.192" y2="96.3559" gradientUnits="userSpaceOnUse">
<stop stop-color="#006AEA"/>
<stop offset="1" stop-color="#00A0FD"/>
</linearGradient>
<linearGradient id="paint15_linear_640_18" x1="345.192" y1="101.227" x2="345.192" y2="113.978" gradientUnits="userSpaceOnUse">
<stop stop-color="#006AEA"/>
<stop offset="1" stop-color="#00A0FD"/>
</linearGradient>
<linearGradient id="paint16_linear_640_18" x1="345.192" y1="136.471" x2="345.192" y2="149.222" gradientUnits="userSpaceOnUse">
<stop stop-color="#006AEA"/>
<stop offset="1" stop-color="#00A0FD"/>
</linearGradient>
<linearGradient id="paint17_linear_640_18" x1="345.192" y1="154.092" x2="345.192" y2="166.843" gradientUnits="userSpaceOnUse">
<stop stop-color="#006AEA"/>
<stop offset="1" stop-color="#00A0FD"/>
</linearGradient>
<linearGradient id="paint18_linear_640_18" x1="366.908" y1="101.227" x2="366.908" y2="113.978" gradientUnits="userSpaceOnUse">
<stop stop-color="#006AEA"/>
<stop offset="1" stop-color="#00A0FD"/>
</linearGradient>
<linearGradient id="paint19_linear_640_18" x1="366.908" y1="118.849" x2="366.908" y2="131.6" gradientUnits="userSpaceOnUse">
<stop stop-color="#006AEA"/>
<stop offset="1" stop-color="#00A0FD"/>
</linearGradient>
<linearGradient id="paint20_linear_640_18" x1="366.908" y1="136.471" x2="366.908" y2="149.222" gradientUnits="userSpaceOnUse">
<stop stop-color="#006AEA"/>
<stop offset="1" stop-color="#00A0FD"/>
</linearGradient>
<linearGradient id="paint21_linear_640_18" x1="388.623" y1="118.849" x2="388.623" y2="131.6" gradientUnits="userSpaceOnUse">
<stop stop-color="#006AEA"/>
<stop offset="1" stop-color="#00A0FD"/>
</linearGradient>
<linearGradient id="paint22_linear_640_18" x1="132.777" y1="147.382" x2="132.777" y2="176.456" gradientUnits="userSpaceOnUse">
<stop stop-color="#005DCD"/>
<stop offset="1" stop-color="#00A0FD"/>
</linearGradient>
<linearGradient id="paint23_linear_640_18" x1="131.042" y1="44.6473" x2="131.042" y2="90.1476" gradientUnits="userSpaceOnUse">
<stop stop-color="#005DCD"/>
<stop offset="1" stop-color="#00A0FD"/>
</linearGradient>
<linearGradient id="paint24_linear_640_18" x1="166.986" y1="68.4668" x2="166.986" y2="90.4123" gradientUnits="userSpaceOnUse">
<stop stop-color="#005DCD"/>
<stop offset="1" stop-color="#00A0FD"/>
</linearGradient>
<linearGradient id="paint25_linear_640_18" x1="96.1722" y1="79.4305" x2="96.1722" y2="100.354" gradientUnits="userSpaceOnUse">
<stop stop-color="#005DCD"/>
<stop offset="1" stop-color="#00A0FD"/>
</linearGradient>
<clipPath id="clip0_640_18">
<rect width="395" height="344" fill="white"/>
</clipPath>
</defs>
</svg>
