<svg width="60" height="62" viewBox="0 0 60 62" fill="none" xmlns="http://www.w3.org/2000/svg">
<path d="M60 0.0925903H0V61.2037H60V0.0925903Z" fill="url(#paint0_linear_640_198)"/>
<path d="M30 28.1019C30 40.1948 30 46.9849 30 48.4722C30 50.7033 28.6928 53.5648 25 53.5648C19.0365 53.5648 18.75 48.4722 18.75 48.4722M51.9749 34.5085C50.4747 31.9349 48.486 30.6482 46.0088 30.6482C42.1409 30.6482 40 33.1945 40 35.7408C40 38.2871 41.25 40.8333 46.271 42.1065C49.4662 42.9167 52.5 44.6528 52.5 48.4722C52.5 52.2917 49.2114 53.5648 46.25 53.5648C42.4654 53.5648 39.9654 51.8673 38.75 48.4722" stroke="#20272F" stroke-width="2"/>
<defs>
<linearGradient id="paint0_linear_640_198" x1="30" y1="0.0925903" x2="30" y2="61.2037" gradientUnits="userSpaceOnUse">
<stop stop-color="#006AEA"/>
<stop offset="1" stop-color="#00A0FD"/>
</linearGradient>
</defs>
</svg>
