<svg width="7" height="13" viewBox="0 0 7 13" fill="none" xmlns="http://www.w3.org/2000/svg">
<path d="M1.45273 12.0525C1.26775 12.0529 1.08849 11.9885 0.946061 11.8704C0.865898 11.804 0.799634 11.7224 0.751064 11.6302C0.702494 11.5381 0.672572 11.4374 0.663012 11.3337C0.653451 11.23 0.664441 11.1254 0.695352 11.026C0.726262 10.9265 0.776484 10.8342 0.843144 10.7542L4.38981 6.51086L0.969812 2.25961C0.904051 2.17863 0.854943 2.08545 0.825309 1.98544C0.795676 1.88542 0.786101 1.78053 0.797137 1.6768C0.808172 1.57307 0.839598 1.47254 0.889611 1.38099C0.939624 1.28945 1.00724 1.20869 1.08856 1.14336C1.17047 1.07129 1.26639 1.01693 1.37031 0.983684C1.47423 0.950443 1.58389 0.93904 1.69242 0.95019C1.80096 0.961341 1.90601 0.994805 2.001 1.04848C2.09598 1.10216 2.17885 1.17489 2.24439 1.26211L6.06814 6.01211C6.18458 6.15376 6.24824 6.33145 6.24824 6.51482C6.24824 6.69819 6.18458 6.87587 6.06814 7.01752L2.10981 11.7675C2.03039 11.8633 1.92951 11.9391 1.81534 11.9886C1.70118 12.0381 1.57695 12.06 1.45273 12.0525Z" fill="white"/>
</svg>
