<svg width="82" height="40" viewBox="0 0 82 40" fill="none" xmlns="http://www.w3.org/2000/svg">
<path d="M79.3511 40C80.8258 40 82 38.8869 82 37.3395C82 35.7649 80.8258 34.7333 79.3511 34.7333C77.8765 34.7333 76.7023 35.7649 76.7023 37.3395C76.7023 38.8869 77.8765 40 79.3511 40Z" fill="#00A0FD"/>
<path fill-rule="evenodd" clip-rule="evenodd" d="M4.49624 3.99237C4.17997 3.99237 4.01587 4.22695 4.01587 4.40465V35.1125C4.01587 35.2902 4.17997 35.5248 4.49624 35.5248H40.8V39.5172H4.49624C2.064 39.5172 0 37.5952 0 35.1125V4.40465C0 1.92203 2.064 0 4.49624 0H39.2162C40.9329 0 42.5281 0.962391 43.2807 2.52123L59.2871 35.6749C59.3586 35.8229 59.4988 35.9242 59.7136 35.931C59.9287 35.9379 60.0794 35.8453 60.1632 35.698L77.8559 4.5836C77.9004 4.5052 77.9092 4.44482 77.9076 4.39729C77.9058 4.34348 77.889 4.27963 77.8496 4.21506C77.7731 4.08988 77.6346 3.99237 77.4239 3.99237H63.4854V0H77.4239C80.7611 0 83.0667 3.53252 81.3518 6.54831L63.6591 37.6627C61.883 40.7862 57.2341 40.649 55.6667 37.4024L39.6603 4.24878C39.5947 4.11294 39.4321 3.99237 39.2162 3.99237H4.49624Z" fill="white"/>
</svg>
