<svg width="70" height="53" viewBox="0 0 70 53" fill="none" xmlns="http://www.w3.org/2000/svg">
<path d="M60.2421 30.146C57.7964 30.1576 55.6776 30.7472 53.9002 31.6227C53.2494 30.3269 52.5927 29.1858 52.4818 28.3365C52.3534 27.3471 52.2046 26.7547 52.3592 25.5756C52.5139 24.3965 53.1968 22.7271 53.1881 22.6017C53.1793 22.4762 53.0363 21.8749 51.6238 21.8662C50.2112 21.8574 49.0059 22.1376 48.8629 22.5112C48.7199 22.8847 48.4485 23.7224 48.2792 24.5979C48.0311 25.8762 45.4628 30.4407 44.0036 32.8281C43.525 31.8971 43.1193 31.074 43.0346 30.4261C42.9062 29.4368 42.7574 28.8443 42.9121 27.6652C43.0668 26.4862 43.7497 24.8168 43.7409 24.6913C43.7322 24.5658 43.5892 23.9646 42.1766 23.9558C40.7641 23.9471 39.5587 24.2273 39.4157 24.6008C39.2727 24.9744 39.1209 25.8441 38.832 26.6875C38.5431 27.531 35.1255 35.1424 34.2325 37.1153C33.7772 38.1193 33.3803 38.9277 33.1001 39.4793L33.0972 39.4764C33.0972 39.4764 33.0797 39.5143 33.0505 39.5756C32.8112 40.0455 32.6682 40.3052 32.6682 40.3052C32.6682 40.3052 32.6711 40.3082 32.6711 40.314C32.4814 40.6584 32.2771 40.9794 32.1749 40.9794C32.1049 40.9794 31.9619 40.063 32.207 38.8022C32.7149 36.161 33.9377 32.043 33.9231 31.9029C33.9173 31.8299 34.1508 31.112 33.1264 30.7384C32.1312 30.3736 31.7751 30.9806 31.6846 30.9836C31.5971 30.9865 31.5299 31.1995 31.5299 31.1995C31.5299 31.1995 32.639 26.5679 29.414 26.5679C27.3974 26.5679 24.6044 28.7743 23.2268 30.7734C22.3571 31.2462 20.498 32.2619 18.5281 33.3446C17.7692 33.762 16.9988 34.1852 16.2633 34.5908C16.2137 34.5354 16.1641 34.4799 16.1115 34.4245C12.2008 30.251 4.96873 27.3004 5.27517 21.6911C5.38608 19.6511 6.09527 14.281 19.1672 7.76695C29.8752 2.43194 38.4497 3.89994 39.9294 7.15406C42.0453 11.8032 35.3473 20.4449 24.2279 21.6911C19.9902 22.1668 17.7605 20.5237 17.206 19.9137C16.6223 19.2687 16.5347 19.2395 16.3158 19.3621C15.9598 19.5577 16.1845 20.1268 16.3158 20.4653C16.6485 21.3292 18.0115 22.8614 20.3346 23.6231C22.3775 24.2944 27.3536 24.6621 33.3686 22.3361C40.1074 19.7299 45.3694 12.4803 43.8226 6.4186C42.2496 0.254742 32.0319 -1.77069 22.3571 1.66437C16.6077 3.69857 10.3767 6.90891 5.89681 11.0999C0.570561 16.0817 -0.281639 20.4215 0.06858 22.2339C1.31186 28.6721 10.187 32.866 13.7417 35.9742C13.5666 36.0705 13.4032 36.161 13.2514 36.2456C11.4682 37.127 4.70315 40.6671 3.01042 44.4086C1.09005 48.6521 3.31686 51.6961 4.78778 52.1076C9.35231 53.3772 14.0365 51.092 16.5522 47.3388C19.068 43.5856 18.7615 38.6971 17.6058 36.4674C17.5912 36.4411 17.5766 36.412 17.562 36.3857C18.0232 36.1143 18.4901 35.837 18.9571 35.5627C19.8647 35.0315 20.7549 34.5325 21.5253 34.1122C21.0934 35.2971 20.7753 36.7155 20.6119 38.7672C20.4222 41.172 21.4115 44.2861 22.7015 45.5118C23.2706 46.0518 23.9535 46.0634 24.3884 46.0634C25.8914 46.0634 26.5773 44.8143 27.3331 43.3346C28.2583 41.5193 29.0813 39.4093 29.0813 39.4093C29.0813 39.4093 28.0511 45.1149 30.8616 45.1149C31.886 45.1149 32.9162 43.787 33.3744 43.1099C33.3744 43.1187 33.3773 43.1216 33.3773 43.1216C33.3773 43.1216 33.4036 43.0778 33.4562 42.9903C33.5612 42.8268 33.6225 42.7247 33.6225 42.7247C33.6225 42.7247 33.6254 42.713 33.6283 42.6955C34.0398 41.9805 34.9533 40.3519 36.3221 37.664C38.0907 34.191 39.7864 29.8424 39.7864 29.8424C39.7864 29.8424 39.944 30.9048 40.4605 32.6646C40.7641 33.6978 41.412 34.8418 41.9198 35.9392C41.5083 36.5083 41.2573 36.8351 41.2573 36.8351C41.2573 36.8351 41.2602 36.841 41.2631 36.8527C40.9363 37.2875 40.5685 37.7574 40.1833 38.2156C38.7882 39.8791 37.1247 41.7762 36.9029 42.3248C36.6402 42.9698 36.7015 43.4455 37.2093 43.8279C37.58 44.108 38.2396 44.1489 38.9283 44.1051C40.1833 44.0205 41.0647 43.7082 41.5024 43.5214C42.1824 43.2821 42.9734 42.9027 43.7147 42.3569C45.0834 41.3501 45.9094 39.9083 45.8306 38.0025C45.7868 36.9519 45.4512 35.91 45.028 34.9264C45.1535 34.7484 45.276 34.5675 45.4015 34.3836C47.5612 31.2287 49.2364 27.7586 49.2364 27.7586C49.2364 27.7586 49.3941 28.821 49.9106 30.5808C50.1733 31.471 50.6869 32.4428 51.1539 33.3942C49.1226 35.0432 47.8648 36.9606 47.427 38.2185C46.6186 40.5446 47.2519 41.5981 48.4397 41.8374C48.9767 41.9454 49.7384 41.7003 50.3075 41.458C51.0197 41.2216 51.8718 40.8306 52.6715 40.2439C54.0403 39.2371 55.3565 37.8274 55.2777 35.9187C55.2427 35.049 55.0063 34.1881 54.6853 33.3592C56.4072 32.6413 58.634 32.2444 61.4708 32.5741C67.5588 33.2863 68.7524 37.0861 68.5248 38.6767C68.2971 40.2673 67.0188 41.1428 66.5927 41.4055C66.1666 41.6682 66.0353 41.7616 66.0703 41.9571C66.1229 42.2431 66.3184 42.2314 66.6832 42.1702C67.1852 42.0855 69.879 40.8773 69.9957 37.9383C70.1416 34.2056 66.5694 30.1109 60.2421 30.146ZM13.3156 45.9642C11.2989 48.1647 8.4826 48.9965 7.27434 48.2961C5.96977 47.5402 6.48635 44.3007 8.96123 41.9659C10.4701 40.5446 12.4167 39.2341 13.7096 38.4257C14.0044 38.2477 14.4363 37.988 14.9617 37.6757C15.0492 37.6261 15.0988 37.5998 15.0988 37.5998L15.0959 37.5969C15.1981 37.5356 15.3002 37.4743 15.4082 37.4101C16.3071 40.7313 15.4315 43.6557 13.3156 45.9642ZM28.0073 35.9771C27.304 37.6903 25.836 42.0709 24.94 41.8345C24.1724 41.6332 23.7055 38.3031 24.7853 35.0257C25.3311 33.3767 26.4926 31.4038 27.1785 30.6392C28.2787 29.4076 29.4899 29.0048 29.7847 29.5039C30.1612 30.143 28.448 34.906 28.0073 35.9771ZM40.1424 41.7703C39.8447 41.925 39.5704 42.0242 39.4449 41.9483C39.3515 41.8929 39.5675 41.6886 39.5675 41.6886C39.5675 41.6886 41.0851 40.0542 41.6834 39.3129C42.0307 38.881 42.4334 38.3674 42.8741 37.7924C42.877 37.8508 42.88 37.9062 42.88 37.9617C42.877 39.9171 40.9859 41.2392 40.1424 41.7703ZM49.4933 39.6369C49.2715 39.4793 49.3094 38.9686 50.039 37.378C50.325 36.7534 50.9788 35.7028 52.117 34.6959C52.2483 35.1103 52.3301 35.5043 52.3271 35.875C52.3125 38.3382 50.5556 39.2575 49.4933 39.6369Z" fill="url(#paint0_linear_806_3)"/>
<defs>
<linearGradient id="paint0_linear_806_3" x1="35" y1="0" x2="35" y2="52.4606" gradientUnits="userSpaceOnUse">
<stop stop-color="#006AEA"/>
<stop offset="1" stop-color="#00A0FD"/>
</linearGradient>
</defs>
</svg>
