<svg width="17" height="18" viewBox="0 0 17 18" fill="none" xmlns="http://www.w3.org/2000/svg">
<g clip-path="url(#clip0_761_11)">
<path d="M9.5 16.0789L9.5 3.47761L14.1325 7.33448C14.2399 7.42378 14.3639 7.49104 14.4973 7.53243C14.6308 7.57382 14.7711 7.58852 14.9102 7.57569C15.1911 7.54979 15.4503 7.41334 15.6306 7.19636C15.811 6.97938 15.8977 6.69964 15.8718 6.41869C15.8459 6.13774 15.7095 5.87858 15.4925 5.69823L9.1175 0.385734C9.0668 0.349992 9.01352 0.318029 8.95813 0.290107C8.905 0.290107 8.87313 0.236982 8.82 0.215732C8.69818 0.167573 8.5685 0.142357 8.4375 0.141357C8.30651 0.142357 8.17683 0.167573 8.055 0.215732C8.00188 0.215732 7.97 0.268857 7.91688 0.290107C7.86148 0.318029 7.80821 0.349992 7.7575 0.385734L1.3825 5.69823C1.26256 5.79813 1.16611 5.92323 1.1 6.06463C1.03389 6.20603 0.999748 6.36026 1 6.51636C0.999517 6.76461 1.08598 7.0052 1.24438 7.19636C1.33357 7.30395 1.44312 7.39288 1.56674 7.45806C1.69035 7.52325 1.82562 7.56341 1.96478 7.57624C2.10394 7.58907 2.24427 7.57432 2.37773 7.53284C2.51118 7.49135 2.63514 7.42395 2.7425 7.33448L7.375 3.47761L7.375 16.0789C7.375 16.3606 7.48694 16.6309 7.6862 16.8302C7.88546 17.0294 8.15571 17.1414 8.4375 17.1414C8.7193 17.1414 8.98955 17.0294 9.1888 16.8302C9.38806 16.6309 9.5 16.3606 9.5 16.0789Z" fill="url(#paint0_linear_761_11)"/>
</g>
<defs>
<linearGradient id="paint0_linear_761_11" x1="1" y1="8.64136" x2="15.8763" y2="8.64136" gradientUnits="userSpaceOnUse">
<stop stop-color="#006AEA"/>
<stop offset="1" stop-color="#00A0FD"/>
</linearGradient>
<clipPath id="clip0_761_11">
<rect width="17" height="17" fill="white" transform="translate(0 0.141357)"/>
</clipPath>
</defs>
</svg>
