<svg width="36" height="36" viewBox="0 0 36 36" fill="none" xmlns="http://www.w3.org/2000/svg">
<path d="M1.11084 34.9697L3.4965 26.2543C2.02438 23.7032 1.25084 20.8113 1.25225 17.8458C1.2565 8.57472 8.80094 1.03027 18.0706 1.03027C22.569 1.03169 26.7916 2.78381 29.9678 5.9628C33.1426 9.14179 34.8904 13.3672 34.889 17.8614C34.8848 27.1339 27.3403 34.6784 18.0706 34.6784C15.2565 34.6769 12.4834 33.9713 10.027 32.6307L1.11084 34.9697ZM10.4399 29.586C12.81 30.9931 15.0727 31.8359 18.065 31.8373C25.7692 31.8373 32.0452 25.567 32.0494 17.8586C32.0523 10.1345 25.806 3.8727 18.0763 3.86987C10.3664 3.86987 4.09468 10.1402 4.09185 17.8472C4.09044 20.9937 5.01246 23.3497 6.56094 25.8145L5.14821 30.9733L10.4399 29.586ZM26.5428 21.8592C26.4381 21.6838 26.1581 21.5792 25.7367 21.3685C25.3167 21.1577 23.2506 20.141 22.8646 20.001C22.4799 19.861 22.1999 19.7903 21.9185 20.2117C21.6385 20.6317 20.8325 21.5792 20.5878 21.8592C20.3432 22.1392 20.0971 22.1745 19.6771 21.9638C19.2571 21.7531 17.9024 21.3105 16.2973 19.878C15.0486 18.7636 14.2044 17.3876 13.9597 16.9662C13.7151 16.5462 13.9343 16.3186 14.1436 16.1093C14.3331 15.9212 14.7743 15.3725 14.7743 15.3725C14.7743 15.3725 15.0571 14.9539 15.1985 14.6725C15.3385 14.3925 15.2692 14.1464 15.1632 13.9357C15.0571 13.7264 14.2171 11.6575 13.8678 10.8161C13.5256 9.99734 13.1791 10.1076 12.9217 10.0949L12.1157 10.0808C11.8357 10.0808 11.3803 10.1854 10.9957 10.6068C10.611 11.0283 9.52498 12.0436 9.52498 14.1125C9.52498 16.1814 11.031 18.1796 11.2403 18.4596C11.451 18.7396 14.203 22.9848 18.4185 24.8048C19.4211 25.2375 20.2046 25.4963 20.8141 25.6901C21.8209 26.0097 22.7373 25.9644 23.4613 25.8569C24.2688 25.7367 25.9474 24.8402 26.2981 23.8588C26.6488 22.8759 26.6488 22.0345 26.5428 21.8592Z" fill="url(#paint0_linear_754_5)"/>
<defs>
<linearGradient id="paint0_linear_754_5" x1="17.9999" y1="1.03027" x2="17.9999" y2="34.9697" gradientUnits="userSpaceOnUse">
<stop stop-color="#006AEA"/>
<stop offset="1" stop-color="#00A0FD"/>
</linearGradient>
</defs>
</svg>
